<svg width="20" height="10" viewBox="0 0 20 10" xmlns="http://www.w3.org/2000/svg"><title>dropdown-callout</title><g fill="none" fill-rule="evenodd"><path d="M18.554 9l-7.137-7.862a1.892 1.892 0 0 0-2.834 0L1.446 9h17.108zM21 11.695l.258.284H21v-.284z" fill-opacity=".1" fill="#000"/><path d="M-140 12.982a2 2 0 0 1 1.998-2.003H28.002c1.104 0 1.998.887 1.998 2.003v215.994a2 2 0 0 1-1.998 2.003h-166.004a1.994 1.994 0 0 1-1.998-2.003V12.982zM9.324 1.81a.893.893 0 0 1 1.352 0L19 10.98H1l8.324-9.17z" fill="#FFF"/></g></svg>
