<?xml version="1.0" encoding="utf-8"?>
<!-- Generator: Adobe Illustrator 16.0.4, SVG Export Plug-In . SVG Version: 6.00 Build 0)  -->
<!DOCTYPE svg PUBLIC "-//W3C//DTD SVG 1.1//EN" "http://www.w3.org/Graphics/SVG/1.1/DTD/svg11.dtd">
<svg version="1.1" id="Layer_1" xmlns="http://www.w3.org/2000/svg" xmlns:xlink="http://www.w3.org/1999/xlink" x="0px" y="0px"
	 width="30px" height="30px" viewBox="0 0 30 30" enable-background="new 0 0 30 30" xml:space="preserve">
<circle fill="#83A0A8" cx="15.088" cy="14.646" r="13.752"/>
<path fill="#FFFFFF" d="M19.089,7.179h-8.271c-0.746,0-1.356,0.611-1.356,1.358v12.217c0,0.747,0.61,1.357,1.356,1.357h8.271
	c0.746,0,1.357-0.61,1.357-1.357V8.538C20.446,7.791,19.835,7.179,19.089,7.179z M10.818,8.13h8.271
	c0.223,0,0.408,0.186,0.408,0.408v3.249h-9.085V8.538C10.412,8.316,10.598,8.13,10.818,8.13z M16.151,21.162h-2.389v-2.178h2.389
	V21.162z M16.151,18.034h-2.389v-2.173h2.389V18.034z M12.812,15.861v2.173h-2.401v-2.173H12.812z M10.412,14.91v-2.174h2.401v2.174
	H10.412z M13.762,14.91v-2.174h2.389v2.174H13.762z M17.101,12.736h2.396v2.174h-2.396V12.736z M10.412,20.755v-1.771h2.401v2.178
	h-1.995C10.598,21.162,10.412,20.975,10.412,20.755z M19.089,21.162h-1.988v-5.301h2.396v4.894
	C19.497,20.975,19.312,21.162,19.089,21.162z"/>
<path fill="#FFFFFF" d="M23.423,23.661c-0.146,0-0.292-0.057-0.404-0.169L6,6.435C5.776,6.21,5.776,5.847,6,5.624
	c0.224-0.223,0.587-0.222,0.81,0.001l17.02,17.059c0.224,0.223,0.224,0.588-0.002,0.81C23.718,23.605,23.571,23.661,23.423,23.661z"
	/>
</svg>
