<svg width="18" height="40" xmlns="http://www.w3.org/2000/svg"><g fill="none" fill-rule="evenodd"><path d="M27.343-100a7 7 0 00-7 7V.414L2.88 17.88a3 3 0 000 4.242l17.464 17.465V131a7 7 0 007 7h414a7 7 0 007-7V-93a7 7 0 00-7-7h-414zm-9 99.586V-93a9 9 0 019-9h414a9 9 0 019 9v224a9 9 0 01-9 9h-414a9 9 0 01-9-9V40.414L1.464 23.536a5 5 0 010-7.072L18.344-.414z" fill="#26334D" fill-rule="nonzero" opacity=".1"/><path d="M27.343-101h414a8 8 0 018 8v224a8 8 0 01-8 8h-414a8 8 0 01-8-8V40L2.172 22.828a4 4 0 010-5.656L19.343 0v-93a8 8 0 018-8z" fill="#FFF"/></g></svg>