<svg width="337" height="353" xmlns="http://www.w3.org/2000/svg"><defs><linearGradient x1="80.573%" y1="13.055%" x2="27.758%" y2="91.441%" id="a"><stop stop-color="#E6E5E1" offset="0%"/><stop stop-color="#8F8E8C" offset="100%"/></linearGradient><linearGradient x1="114.847%" y1="12.441%" x2="-21.07%" y2="112.817%" id="b"><stop stop-color="#E6E5E1" offset="0%"/><stop stop-color="#8F8E8C" offset="100%"/></linearGradient><linearGradient x1="114.847%" y1="35.389%" x2="-21.07%" y2="74.436%" id="c"><stop stop-color="#E6E5E1" offset="0%"/><stop stop-color="#8F8E8C" offset="100%"/></linearGradient><linearGradient x1="82.066%" y1="13.055%" x2="26.672%" y2="91.441%" id="d"><stop stop-color="#E6E5E1" offset="0%"/><stop stop-color="#8F8E8C" offset="100%"/></linearGradient><linearGradient x1="83.305%" y1="13.055%" x2="25.771%" y2="91.441%" id="e"><stop stop-color="#E6E5E1" offset="0%"/><stop stop-color="#8F8E8C" offset="100%"/></linearGradient><linearGradient x1="84.351%" y1="13.055%" x2="25.01%" y2="91.441%" id="f"><stop stop-color="#E6E5E1" offset="0%"/><stop stop-color="#8F8E8C" offset="100%"/></linearGradient><linearGradient x1="85.244%" y1="13.055%" x2="24.36%" y2="91.441%" id="g"><stop stop-color="#E6E5E1" offset="0%"/><stop stop-color="#8F8E8C" offset="100%"/></linearGradient><linearGradient x1="86.016%" y1="13.055%" x2="23.798%" y2="91.441%" id="h"><stop stop-color="#E6E5E1" offset="0%"/><stop stop-color="#8F8E8C" offset="100%"/></linearGradient><linearGradient x1="86.69%" y1="13.055%" x2="23.308%" y2="91.441%" id="i"><stop stop-color="#E6E5E1" offset="0%"/><stop stop-color="#8F8E8C" offset="100%"/></linearGradient><linearGradient x1="87.283%" y1="13.055%" x2="22.877%" y2="91.441%" id="j"><stop stop-color="#E6E5E1" offset="0%"/><stop stop-color="#8F8E8C" offset="100%"/></linearGradient><linearGradient x1="87.809%" y1="13.055%" x2="22.494%" y2="91.441%" id="k"><stop stop-color="#E6E5E1" offset="0%"/><stop stop-color="#8F8E8C" offset="100%"/></linearGradient><linearGradient x1="88.278%" y1="13.055%" x2="22.153%" y2="91.441%" id="l"><stop stop-color="#E6E5E1" offset="0%"/><stop stop-color="#8F8E8C" offset="100%"/></linearGradient><linearGradient x1="88.703%" y1="13.055%" x2="21.843%" y2="91.441%" id="m"><stop stop-color="#E6E5E1" offset="0%"/><stop stop-color="#8F8E8C" offset="100%"/></linearGradient><linearGradient x1="89.084%" y1="13.055%" x2="21.566%" y2="91.441%" id="n"><stop stop-color="#E6E5E1" offset="0%"/><stop stop-color="#8F8E8C" offset="100%"/></linearGradient><linearGradient x1="89.43%" y1="13.055%" x2="21.315%" y2="91.441%" id="o"><stop stop-color="#E6E5E1" offset="0%"/><stop stop-color="#8F8E8C" offset="100%"/></linearGradient><linearGradient x1="89.745%" y1="13.055%" x2="21.085%" y2="91.441%" id="p"><stop stop-color="#E6E5E1" offset="0%"/><stop stop-color="#8F8E8C" offset="100%"/></linearGradient><linearGradient x1="90.034%" y1="13.055%" x2="20.875%" y2="91.441%" id="q"><stop stop-color="#E6E5E1" offset="0%"/><stop stop-color="#8F8E8C" offset="100%"/></linearGradient><linearGradient x1="90.299%" y1="13.055%" x2="20.683%" y2="91.441%" id="r"><stop stop-color="#E6E5E1" offset="0%"/><stop stop-color="#8F8E8C" offset="100%"/></linearGradient><linearGradient x1="90.543%" y1="13.055%" x2="20.505%" y2="91.441%" id="s"><stop stop-color="#E6E5E1" offset="0%"/><stop stop-color="#8F8E8C" offset="100%"/></linearGradient><linearGradient x1="90.769%" y1="13.055%" x2="20.34%" y2="91.441%" id="t"><stop stop-color="#E6E5E1" offset="0%"/><stop stop-color="#8F8E8C" offset="100%"/></linearGradient><linearGradient x1="90.979%" y1="13.055%" x2="20.188%" y2="91.441%" id="u"><stop stop-color="#E6E5E1" offset="0%"/><stop stop-color="#8F8E8C" offset="100%"/></linearGradient><linearGradient x1="91.174%" y1="13.055%" x2="20.046%" y2="91.441%" id="v"><stop stop-color="#E6E5E1" offset="0%"/><stop stop-color="#8F8E8C" offset="100%"/></linearGradient><linearGradient x1="91.356%" y1="13.055%" x2="19.914%" y2="91.441%" id="w"><stop stop-color="#E6E5E1" offset="0%"/><stop stop-color="#8F8E8C" offset="100%"/></linearGradient><linearGradient x1="91.526%" y1="13.055%" x2="19.79%" y2="91.441%" id="x"><stop stop-color="#E6E5E1" offset="0%"/><stop stop-color="#8F8E8C" offset="100%"/></linearGradient><linearGradient x1="91.685%" y1="13.055%" x2="19.674%" y2="91.441%" id="y"><stop stop-color="#E6E5E1" offset="0%"/><stop stop-color="#8F8E8C" offset="100%"/></linearGradient><linearGradient x1="91.835%" y1="13.055%" x2="19.565%" y2="91.441%" id="z"><stop stop-color="#E6E5E1" offset="0%"/><stop stop-color="#8F8E8C" offset="100%"/></linearGradient><linearGradient x1="91.975%" y1="13.055%" x2="19.463%" y2="91.441%" id="A"><stop stop-color="#E6E5E1" offset="0%"/><stop stop-color="#8F8E8C" offset="100%"/></linearGradient><linearGradient x1="92.108%" y1="13.055%" x2="19.367%" y2="91.441%" id="B"><stop stop-color="#E6E5E1" offset="0%"/><stop stop-color="#8F8E8C" offset="100%"/></linearGradient><linearGradient x1="92.233%" y1="13.055%" x2="19.276%" y2="91.441%" id="C"><stop stop-color="#E6E5E1" offset="0%"/><stop stop-color="#8F8E8C" offset="100%"/></linearGradient><linearGradient x1="92.351%" y1="13.055%" x2="19.19%" y2="91.441%" id="D"><stop stop-color="#E6E5E1" offset="0%"/><stop stop-color="#8F8E8C" offset="100%"/></linearGradient></defs><g fill-rule="nonzero" stroke-width="1.074" fill="none" opacity=".2"><path d="M165.154 132.18c24.67 0 37.003 9.569 37.003 28.704 0 19.135-12.336 28.704-37.003 28.704h-13.97v28.091l-18.38-.004V132.18zm.855 16.124h-14.826v25.16l14.826.002c11.602 0 17.4-4.195 17.4-12.58 0-8.387-5.8-12.582-17.4-12.582z" stroke="url(#a)" transform="translate(1 1)"/><path d="M166.01 168.285c4.806 0 8.132-.802 10.014-2.163 1.484-1.073 2.204-2.634 2.204-5.236s-.72-4.164-2.205-5.238c-1.882-1.361-5.208-2.163-10.014-2.163h-9.645v14.799l9.645.001z" stroke="url(#b)" opacity=".6" transform="translate(1 1)"/><path d="M166.01 163.466c2.154 0 3.917-.183 5.27-.508.971-.235 2.129-.553 2.129-2.072 0-1.519-1.159-1.84-2.13-2.074-1.353-.326-3.115-.508-5.27-.508h-4.825v5.16l4.825.002z" stroke="url(#c)" opacity=".3" transform="translate(1 1)"/><path d="M154.312 222.594l-24.636-.006c-.99 0-1.79-.802-1.79-1.79v-91.741c0-.989.8-1.79 1.79-1.79h35.478c27.152 0 41.921 11.457 41.921 33.617 0 22.16-14.77 33.617-41.921 33.617h-9.052v26.303a1.79 1.79 0 0 1-1.79 1.79z" stroke="url(#d)" opacity=".9" transform="translate(1 1)"/><path d="M155.65 227.508l-27.312-.006a5.375 5.375 0 0 1-5.372-5.373v-94.405a5.371 5.371 0 0 1 5.372-5.371h36.816c14.33 0 25.644 2.925 33.786 9.241 8.723 6.767 13.054 16.847 13.054 29.29 0 12.443-4.332 22.523-13.055 29.29-8.142 6.316-19.456 9.241-33.785 9.241h-4.133v22.723a5.37 5.37 0 0 1-5.37 5.371h-.002z" stroke="url(#e)" opacity=".8" transform="translate(1 1)"/><path d="M156.987 232.422L127 232.415a8.959 8.959 0 0 1-8.952-8.955v-97.069A8.952 8.952 0 0 1 127 117.44h38.154c15.328 0 27.673 3.192 36.802 10.274 10.002 7.758 14.957 19.29 14.957 33.17 0 13.882-4.956 25.414-14.958 33.172-8.973 6.96-21.052 10.163-36.016 10.271v19.146a8.95 8.95 0 0 1-8.952 8.95z" stroke="url(#f)" opacity=".7" transform="translate(1 1)"/><path d="M158.325 237.336l-32.663-.008c-6.92-.004-12.53-5.615-12.533-12.536v-99.734c0-6.922 5.611-12.533 12.533-12.533h39.492c16.326 0 29.702 3.459 39.819 11.307 11.28 8.75 16.858 21.734 16.858 37.052 0 15.318-5.58 28.302-16.86 37.052-8.912 6.914-20.354 10.421-34.113 11.158v15.712c.003 6.922-5.608 12.533-12.53 12.533-.001 0-.002 0-.003-.003z" stroke="url(#g)" opacity=".7" transform="translate(1 1)"/><path d="M159.662 242.25l-35.337-.008c-8.898-.006-16.11-7.22-16.115-16.118V123.726c0-8.9 7.215-16.115 16.115-16.115h40.829c17.323 0 31.731 3.726 42.836 12.34 12.557 9.741 18.76 24.177 18.76 40.933s-6.204 31.192-18.761 40.933c-8.75 6.787-19.55 10.54-32.212 11.826v12.497c.003 8.9-7.211 16.114-16.11 16.114-.002 0-.003 0-.005-.004z" stroke="url(#h)" opacity=".7" transform="translate(1 1)"/><path d="M180.695 217.978v9.496c.005 10.877-8.813 19.695-19.69 19.695-.002 0-.004 0-.005-.005l-38.013-.009c-10.875-.007-19.69-8.824-19.695-19.7V122.393c0-10.878 8.818-19.695 19.695-19.695h42.167c18.321 0 33.76 3.992 45.852 13.372 13.836 10.733 20.663 26.62 20.663 44.814s-6.828 34.082-20.664 44.814c-8.502 6.595-18.66 10.527-30.31 12.28z" stroke="url(#i)" opacity=".6" transform="translate(1 1)"/><path d="M162.338 252.078l-40.689-.01c-12.853-.008-23.27-10.428-23.276-23.281V121.06c0-12.855 10.421-23.276 23.276-23.276h43.505c19.319 0 35.79 4.259 48.87 14.405 15.112 11.724 22.563 29.064 22.563 48.695 0 19.632-7.451 36.972-22.565 48.695-8.186 6.35-17.7 10.394-28.408 12.53v6.699c.005 12.855-10.416 23.276-23.27 23.276-.003 0-.005 0-.006-.006z" stroke="url(#j)" opacity=".6" transform="translate(1 1)"/><path d="M163.675 256.993l-43.363-.01c-14.83-.01-26.851-12.034-26.858-26.864V119.727c0-14.833 12.025-26.857 26.858-26.857h44.842c20.317 0 37.82 4.526 51.886 15.438 16.391 12.715 24.466 31.507 24.466 52.576 0 21.07-8.076 39.861-24.468 52.577-7.81 6.059-16.682 10.149-26.505 12.588v4.093c.006 14.832-12.018 26.857-26.851 26.857-.002 0-.005 0-.007-.006z" stroke="url(#k)" opacity=".6" transform="translate(1 1)"/><path d="M165.013 261.907l-46.039-.011c-16.808-.012-30.431-13.638-30.438-30.446V118.395c0-16.811 13.627-30.439 30.438-30.439h46.18c21.315 0 39.849 4.793 54.903 16.47 17.669 13.708 26.368 33.951 26.368 56.458 0 22.507-8.7 42.751-26.37 56.458-7.39 5.732-15.619 9.806-24.604 12.467v1.667c.007 16.81-13.62 30.438-30.43 30.438-.003 0-.006 0-.008-.007z" stroke="url(#l)" opacity=".6" transform="translate(1 1)"/><path d="M200.37 233.403c0 18.456-14.962 33.418-33.418 33.418h-.008l-49.308-.012c-18.785-.012-34.01-15.242-34.019-34.027v-115.72c0-18.789 15.231-34.02 34.02-34.02h47.517c22.313 0 41.878 5.06 57.92 17.504 18.947 14.698 28.27 36.394 28.27 60.338 0 23.945-9.324 45.64-28.272 60.339-6.93 5.376-14.519 9.373-22.702 12.18z" stroke="url(#m)" opacity=".55" transform="translate(1 1)"/><path d="M170.334 271.735l-54.035-.012c-20.763-.014-37.592-16.847-37.6-37.61V115.73c0-20.766 16.834-37.6 37.6-37.6h48.855c10.49 0 20.376 1.095 29.747 3.518 11.426 2.955 21.958 7.857 31.189 15.018 20.225 15.69 30.172 38.837 30.172 64.219 0 25.383-9.948 48.53-30.174 64.22-6.36 4.933-13.337 8.794-20.8 11.685 0 19.3-15.645 34.946-34.945 34.946h-.009z" stroke="url(#n)" opacity=".5" transform="translate(1 1)"/><path d="M173.637 276.65l-58.676-.014c-22.74-.015-41.171-18.451-41.181-41.191V114.396c0-22.744 18.437-41.181 41.181-41.181h50.193c10.883 0 21.178 1.14 30.98 3.675 12.044 3.115 23.183 8.3 32.973 15.894 21.503 16.68 32.074 41.28 32.074 68.1 0 26.82-10.572 51.42-32.076 68.101-5.85 4.537-12.18 8.214-18.898 11.103 0 20.193-16.369 36.562-36.561 36.562h-.009z" stroke="url(#o)" opacity=".5" transform="translate(1 1)"/><path d="M176.815 281.564l-63.192-.015c-24.717-.016-44.751-20.055-44.762-44.772V113.063c0-24.721 20.04-44.762 44.762-44.762h51.53c11.277 0 21.98 1.186 32.213 3.832 12.663 3.275 24.41 8.742 34.757 16.77 22.782 17.672 33.976 43.724 33.976 71.98 0 28.259-11.195 54.311-33.978 71.983a90.765 90.765 0 0 1-16.995 10.397c0 21.153-17.148 38.301-38.302 38.301h-.009z" stroke="url(#p)" opacity=".45" transform="translate(1 1)"/><path d="M179.88 286.479l-67.594-.016c-26.695-.018-48.332-21.66-48.343-48.355V111.731c0-26.7 21.643-48.344 48.343-48.344h52.868c11.669 0 22.78 1.232 33.444 3.99 13.282 3.434 25.635 9.183 36.542 17.644 24.06 18.664 35.878 46.168 35.878 75.863 0 29.696-11.82 57.2-35.88 75.863a95.264 95.264 0 0 1-15.093 9.577c0 22.177-17.979 40.155-40.156 40.155h-.01z" stroke="url(#q)" opacity=".4" transform="translate(1 1)"/><path d="M224.963 249.28c0 23.259-18.854 42.113-42.113 42.113h-.01l-71.892-.017c-28.672-.019-51.912-23.264-51.924-51.936V110.398c0-28.677 23.247-51.924 51.924-51.924h54.206c12.062 0 23.581 1.276 34.677 4.145 13.9 3.595 26.86 9.627 38.326 18.521 25.337 19.656 37.78 48.611 37.78 79.744 0 31.134-12.444 60.09-37.782 79.744a99.881 99.881 0 0 1-13.192 8.653z" stroke="url(#r)" opacity=".4" transform="translate(1 1)"/><path d="M185.706 296.308l-76.096-.018c-30.65-.02-55.492-24.869-55.505-55.519V109.066c0-30.655 24.85-55.505 55.505-55.505h55.544c12.455 0 24.382 1.322 35.91 4.302 14.518 3.755 28.085 10.07 40.11 19.397 26.615 20.647 39.681 51.055 39.681 83.625 0 32.571-13.067 62.98-39.684 83.626a104.606 104.606 0 0 1-11.29 7.632c0 24.392-19.773 44.166-44.165 44.166h-.01z" stroke="url(#s)" opacity=".35" transform="translate(1 1)"/><path d="M234.8 254.917c0 25.573-20.731 46.305-46.305 46.305h-.011l-80.211-.019c-32.627-.022-59.072-26.473-59.086-59.1v-134.37c0-32.633 26.453-59.087 59.086-59.087h56.88c12.849 0 25.185 1.367 37.143 4.46 15.137 3.914 29.31 10.51 41.894 20.272a105.874 105.874 0 0 1 32.49 41.997c6.271 14.592 9.094 29.92 9.094 45.509 0 15.59-2.824 30.919-9.095 45.512a105.875 105.875 0 0 1-32.491 41.995 109.426 109.426 0 0 1-9.388 6.526z" stroke="url(#t)" opacity=".3" transform="translate(1 1)"/><path d="M239.72 257.61c0 26.8-21.727 48.527-48.527 48.527h-.011l-84.247-.02c-34.604-.023-62.652-28.078-62.667-62.682V106.399c0-34.61 28.057-62.667 62.667-62.667h58.219c13.24 0 25.985 1.413 38.374 4.616 15.755 4.074 30.537 10.954 43.679 21.15a110.788 110.788 0 0 1 33.994 43.939c6.548 15.24 9.492 31.223 9.492 47.447 0 16.225-2.945 32.21-9.494 47.45a110.79 110.79 0 0 1-33.994 43.938 114.332 114.332 0 0 1-7.486 5.339z" stroke="url(#u)" opacity=".25" transform="translate(1 1)"/><path d="M193.805 311.051l-88.208-.02c-36.581-.025-66.232-29.683-66.248-66.265v-139.7c0-36.587 29.66-66.247 66.248-66.247h59.557c13.634 0 26.786 1.457 39.607 4.772 16.373 4.234 31.762 11.397 45.463 22.025A115.703 115.703 0 0 1 285.72 111.5c6.826 15.886 9.89 32.525 9.89 49.385s-3.065 33.501-9.892 49.389a115.704 115.704 0 0 1-35.498 45.88 119.315 119.315 0 0 1-5.583 4.078c0 28.067-22.753 50.82-50.82 50.82h-.013z" stroke="url(#v)" opacity=".2" transform="translate(1 1)"/><path d="M196.36 315.965l-92.1-.021c-38.56-.026-69.813-31.287-69.83-69.846V103.734c0-38.566 31.264-69.83 69.83-69.83h60.894c14.027 0 27.587 1.504 40.84 4.93 16.991 4.394 32.986 11.84 47.246 22.901a120.617 120.617 0 0 1 37 47.825c7.105 16.534 10.29 33.829 10.29 51.324 0 17.496-3.186 34.792-10.291 51.327a120.619 120.619 0 0 1-37.001 47.823 124.37 124.37 0 0 1-3.682 2.748c0 29.373-23.81 53.183-53.183 53.183h-.012z" stroke="url(#w)" opacity=".15" transform="translate(1 1)"/><path d="M254.475 265.762c0 30.712-24.897 55.61-55.609 55.61h-.013l-95.931-.024c-40.537-.027-73.393-32.89-73.41-73.427V102.892c0-40.543 32.867-73.41 73.41-73.41h62.232c14.42 0 28.388 1.549 42.072 5.087 17.61 4.553 34.212 12.281 49.03 23.776a125.531 125.531 0 0 1 38.504 49.768c7.383 17.181 10.689 35.131 10.689 53.262 0 18.133-3.307 36.084-10.69 53.266a125.533 125.533 0 0 1-40.284 51.121z" stroke="url(#x)" opacity=".15" transform="translate(1 1)"/><path d="M201.287 326.285l-99.703-.023c-42.514-.029-76.972-34.496-76.99-77.01V101.56c0-42.521 34.47-76.991 76.99-76.991h63.57c14.813 0 29.19 1.593 43.304 5.243 18.229 4.713 35.438 12.723 50.816 24.652a130.446 130.446 0 0 1 40.006 51.711c7.66 17.828 11.087 36.434 11.087 55.2 0 18.768-3.427 37.375-11.089 55.204a130.445 130.445 0 0 1-39.884 51.613c0 32.084-26.01 58.093-58.093 58.093h-.014z" stroke="url(#y)" opacity=".1" transform="translate(1 1)"/><path d="M203.666 331.2l-103.42-.025c-44.49-.03-80.552-36.1-80.571-80.59V100.226c0-44.499 36.073-80.572 80.572-80.572h64.907c15.206 0 29.99 1.639 44.537 5.4 18.847 4.873 36.663 13.166 52.6 25.528a135.36 135.36 0 0 1 41.509 53.654c7.939 18.475 11.486 37.736 11.486 57.138 0 19.404-3.548 38.666-11.488 57.143a135.335 135.335 0 0 1-39.486 52.05c0 33.486-27.146 60.632-60.632 60.632h-.014z" stroke="url(#z)" opacity=".1" transform="translate(1 1)"/><path d="M205.993 336.114l-107.084-.025c-46.469-.031-84.133-37.705-84.153-84.173V98.894c0-46.476 37.676-84.153 84.153-84.153h66.245c15.599 0 30.792 1.684 45.77 5.557 19.464 5.033 37.888 13.608 54.383 26.404a140.274 140.274 0 0 1 43.013 55.596c8.217 19.123 11.885 39.04 11.885 59.077 0 20.04-3.669 39.957-11.888 59.081a140.232 140.232 0 0 1-39.086 52.435c0 34.917-28.306 63.223-63.223 63.223h-.015z" stroke="url(#A)" opacity=".1" transform="translate(1 1)"/><path d="M208.271 341.028l-110.7-.026c-48.446-.032-87.713-39.309-87.734-87.755V97.561c0-48.454 39.28-87.733 87.734-87.733h67.583c15.992 0 31.593 1.728 47.002 5.713 20.083 5.193 39.114 14.05 56.168 27.28a145.189 145.189 0 0 1 44.515 57.54c8.496 19.77 12.284 40.341 12.284 61.014 0 20.675-3.79 41.249-12.286 61.02-8.757 20.377-21.944 38.347-38.687 52.77 0 36.375-29.488 65.863-65.863 65.863h-.016z" stroke="url(#B)" opacity=".1" transform="translate(1 1)"/><path d="M279.068 277.394c0 37.858-30.69 68.549-68.548 68.549h-.016l-114.27-.027c-50.424-.034-91.294-40.914-91.315-91.337V96.23c0-50.432 40.883-91.315 91.314-91.315h68.92c16.386 0 32.395 1.774 48.235 5.87 20.702 5.353 40.34 14.493 57.952 28.156a150.103 150.103 0 0 1 46.02 59.482c8.773 20.417 12.682 41.645 12.682 62.953 0 21.31-3.91 42.54-12.685 62.958-8.753 20.367-21.789 38.41-38.289 53.061z" stroke="url(#C)" opacity=".05" transform="translate(1 1)"/><path d="M212.693 350.857l-117.797-.028C42.496 350.794.023 308.311 0 255.911V94.896C0 42.486 42.486 0 94.896 0h70.258c16.778 0 33.196 1.82 49.467 6.027 21.32 5.513 41.565 14.936 59.736 29.032a155.018 155.018 0 0 1 47.522 61.425c9.052 21.064 13.081 42.947 13.081 64.891 0 21.946-4.03 43.83-13.083 64.897-8.744 20.347-21.631 38.451-37.89 53.308 0 39.365-31.912 71.277-71.277 71.277h-.017z" stroke="url(#D)" opacity=".05" transform="translate(1 1)"/></g></svg>