<?xml version="1.0" encoding="UTF-8" standalone="no"?>
<svg width="32px" height="32px" viewBox="0 0 32 32" version="1.1" xmlns="http://www.w3.org/2000/svg" xmlns:xlink="http://www.w3.org/1999/xlink" xmlns:sketch="http://www.bohemiancoding.com/sketch/ns">
    <!-- Generator: Sketch 3.5 (25232) - http://www.bohemiancoding.com/sketch -->
    <title>chrome-icon</title>
    <desc>Created with Sketch.</desc>
    <defs></defs>
    <g id="Page-1" stroke="none" stroke-width="1" fill="none" fill-rule="evenodd" sketch:type="MSPage">
        <path d="M3.86360233,5.57420289 C11.3015188,-3.08234351 25.0927673,-1.37358658 30.2485049,8.7381387 C26.6192167,8.73945983 20.9360219,8.73705072 17.857958,8.7381387 C15.6254879,8.73891583 14.1840872,8.68816914 12.6231523,9.50990808 C10.7880422,10.4758826 9.40341828,12.2664715 8.92007759,14.3696227 L3.86360233,5.57420289 L3.86360233,5.57420289 Z M10.676974,15.9994231 C10.676974,18.9332502 13.0624541,21.3200544 15.9946536,21.3200544 C18.9267755,21.3200544 21.3122556,18.9332502 21.3122556,15.9994231 C21.3122556,13.0656736 18.9267755,10.6787917 15.9946536,10.6787917 C13.0624541,10.6787917 10.676974,13.0656736 10.676974,15.9994231 L10.676974,15.9994231 Z M18.0584244,22.9637654 C15.0737199,23.8507834 11.580898,22.8670903 9.66765177,19.5645919 C8.20722192,17.0437325 4.34857409,10.3215443 2.59470681,7.26493036 C-3.54790636,16.6796463 1.74616157,29.509467 12.8976383,31.6992684 L18.0584244,22.9637654 L18.0584244,22.9637654 Z M20.9343131,10.6787917 C23.4202206,12.9909136 23.9618138,16.7348227 22.2779272,19.6377977 C21.0092647,21.8249568 16.9601699,28.6589742 14.9977586,31.9682337 C26.4872553,32.6765114 34.8629599,21.4158748 31.0797297,10.6787917 L20.9343131,10.6787917 L20.9343131,10.6787917 Z" id="chrome-icon" fill="#FFFFFF" sketch:type="MSShapeGroup"></path>
    </g>
</svg>