<svg width="32" height="32" viewBox="0 0 32 32" xmlns="http://www.w3.org/2000/svg"><title>chrome-icon</title><path d="M3.864 5.574c7.438-8.656 21.229-6.948 26.385 3.164H17.858c-2.233 0-3.674-.05-5.235.772-1.835.966-3.22 2.756-3.703 4.86L3.864 5.574zM10.677 16a5.325 5.325 0 0 0 5.318 5.321A5.325 5.325 0 0 0 21.312 16a5.325 5.325 0 0 0-5.317-5.321 5.325 5.325 0 0 0-5.318 5.32zm7.381 6.965c-2.984.887-6.477-.097-8.39-3.4-1.46-2.52-5.32-9.242-7.073-12.3C-3.548 16.68 1.746 29.51 12.898 31.7l5.16-8.735zm2.876-12.285c2.486 2.312 3.028 6.056 1.344 8.959-1.269 2.187-5.318 9.021-7.28 12.33 11.49.709 19.865-10.552 16.082-21.29H20.934z" fill="#202D4A" fill-rule="evenodd"/></svg>