<svg width="32" height="31" viewBox="0 0 32 31" xmlns="http://www.w3.org/2000/svg"><title>Shape</title><path d="M26.555 3.594a15.366 15.366 0 0 0-.008-.006c-.348-.265-.622-.45-.622-.45v.654c3.282 3.007 3.61 5.099 3.61 5.099-.59-1.896-2.297-3.334-3.741-4.707-1.444-1.373-4.463-2.092-4.463-2.092 3.216 1.83 4.791 4.707 4.791 4.707-1.64-1.57-2.953-1.438-2.953-1.438.984.719 1.444 1.503 2.362 2.941.92 1.438.854 4.838.854 4.838-.46-1.111-1.379-1.57-1.379-1.57s.197 1.962.329 3.073c.13 1.112-.46 3.204-.46 3.204 0-.785-.46-.98-.46-.98s.132.457-.524 2.549c-.657 2.092-1.904 2.81-2.1 2.745-.198-.065 0-.392 0-.392s-.329-.261-.788.458c-.388.606-1.055.934-1.255 1.021.214-.12.27-.564.27-.564s-.46.262-2.56.589c-2.1.326-3.084-.589-3.084-.589.197-.196 1.116 0 1.116 0 0-.196-1.05-.523-2.1-.653-.855-.107-1.268-.501-1.467-.817a5.229 5.229 0 0 1-.998-.86 4.598 4.598 0 0 1-.732-1.105c-.358-.76-.472-1.537-.472-2.225 0-.649.101-1.22.203-1.631a5.38 5.38 0 0 1 .207-.676l.014.006c.124-.378.366-.682.652-.805a2.877 2.877 0 0 0-.277-.168 2.199 2.199 0 0 0-1.392-.245c-.479.076-.937.312-1.344.622a3 3 0 0 0-.906 1.186 3.754 3.754 0 0 0-.308 1.505c0 .52.102 1.042.291 1.533.19.493.463.955.794 1.373.331.419.72.795 1.14 1.13a7.093 7.093 0 0 1-1.209-1.073 5.39 5.39 0 0 1-.89-1.361 4.5 4.5 0 0 1-.396-1.595 4.065 4.065 0 0 1 .245-1.645c.197-.527.512-1.02.959-1.403.216-.18.45-.343.706-.479.255-.135.532-.241.824-.3.291-.06.596-.072.894-.03.298.04.586.131.853.258.268.126.515.287.742.47a4.217 4.217 0 0 1 .595.59c.234-.604.07-1.613.032-1.825-.124-.174-.3-.395-.498-.709a7.1 7.1 0 0 1-.475-.898 4.118 4.118 0 0 1-.348-1.688 5.33 5.33 0 0 1 .347-1.86c.37-1.607 2.147-3.188 2.147-3.188-2.494-.326-4.2 1.962-4.2 1.962l-.021-.013c-.177.196-.777.894-.832 1.45 0 0 .02-1 .272-1.7-.952-.301-2.072-.143-2.647-.025l.004.021a4.796 4.796 0 0 0-1.604.615 6.787 6.787 0 0 0-1.236.957A7.556 7.556 0 0 0 1.986 8.67l-.019-.011C.76 10.402 0 14.12 0 14.12c.131-.589.722-1.308.722-1.308-.656.98-.525 5.491-.525 5.491 0-.719.394-1.569.394-1.569.131 1.504.787 6.342 5.053 10.002 4.267 3.661 7.877 3.988 7.877 3.988-.854-.261-1.05-.654-1.05-.654 2.756 1.112 4.462.916 4.462.916-.459-.262-.525-.458-.525-.458 2.954.13 6.892-.915 7.81-1.569.92-.654 1.707-1.961 1.707-1.961 2.363-1.111 4.004-3.4 4.463-4.576.46-1.177 0-2.419 0-2.419s0-.065 1.116-2.55c1.116-2.484 0-6.014 0-6.014 0 .532-.482 1.276-.575 1.415.02-.05.05-.205.05-.696 0-.719.197-2.55-.722-4.576S27.96 4.576 27.96 4.576v.458c-.12-.4-.853-1.018-1.405-1.44zM5.223 5.051l.087-.09a14.721 14.721 0 0 1 4.694-3.152A14.725 14.725 0 0 1 15.752.654c1.882 0 3.71.347 5.44 1.03 1.011.174 2.358.51 3.48 1.145A15.395 15.395 0 0 0 15.753 0c-4.31 0-8.205 1.761-11.004 4.6.13.157.287.309.475.45zm5.475 11.554a1.88 1.88 0 0 1-.277-.284c-.026.22-.044.456-.044.703 0 .462.058.96.217 1.455.158.494.416.985.822 1.44.271.303.609.592 1.03.854l-.023.037c.793.015 2.084 0 2.738-.218.985-.326 2.56-1.569 2.56-1.569.394-.392.853-.196 1.247-.196.394 0 .525-.588 0-1.176-.525-.589-2.363-1.177-3.741-.262-1.378.915-3.347.196-4.529-.784zm.952-8.628a4.61 4.61 0 0 0-.164 1.19c0 .453.076.941.29 1.421a6.345 6.345 0 0 0 .773 1.309c.185-.17.401-.34.578-.457.394-.261 1.903-.98 2.1-1.176.197-.197.59-1.243.263-1.57-.329-.326-2.429-.13-3.085-.26-.277-.056-.541-.25-.755-.457zm.423 6.401a.405.405 0 0 1 .006.014l.011-.026-.017.012zM3.947 5.874c.276-.165.575-.315.894-.438-1.264-1.048-1.166-2.429-1.166-2.429-1.264 1.216-1.572 3.268-1.637 4.51l.054-.064c.428-.49 1.052-1.1 1.855-1.579z" fill="#28334B" fill-rule="evenodd"/></svg>