<?xml version="1.0" encoding="UTF-8" standalone="no"?>
<svg width="32px" height="31px" viewBox="0 0 32 31" version="1.1" xmlns="http://www.w3.org/2000/svg" xmlns:xlink="http://www.w3.org/1999/xlink" xmlns:sketch="http://www.bohemiancoding.com/sketch/ns">
    <!-- Generator: Sketch 3.5.2 (25235) - http://www.bohemiancoding.com/sketch -->
    <title>Shape</title>
    <desc>Created with Sketch.</desc>
    <defs></defs>
    <g id="Page-1" stroke="none" stroke-width="1" fill="none" fill-rule="evenodd" sketch:type="MSPage">
        <path d="M26.5553569,3.59444641 C26.5110825,3.5519477 26.4665558,3.50971656 26.4217685,3.46774492 C26.4634363,3.50783072 26.5052206,3.54796001 26.547087,3.58813964 C26.1993031,3.3231 25.9252507,3.13787574 25.9252507,3.13787574 L25.9252507,3.79159985 C29.206928,6.79873076 29.5350957,8.89064792 29.5350957,8.89064792 C28.9443938,6.994848 27.2379216,5.55665495 25.7939836,4.18383432 C24.3500456,2.81101368 21.3309025,2.09191716 21.3309025,2.09191716 C24.5469462,3.92234467 26.1221513,6.79873076 26.1221513,6.79873076 C24.4813127,5.22979289 23.1686418,5.36053772 23.1686418,5.36053772 C24.1531449,6.07963424 24.6125798,6.86410317 25.5314494,8.30229622 C26.4503191,9.74048927 26.3846855,13.1398546 26.3846855,13.1398546 C25.9252507,12.0285237 25.006381,11.5709168 25.006381,11.5709168 C25.006381,11.5709168 25.2032817,13.5320891 25.3345488,14.6434201 C25.4658159,15.7547511 24.8751139,17.8466683 24.8751139,17.8466683 C24.8751139,17.0621993 24.4156791,16.8660821 24.4156791,16.8660821 C24.4156791,16.8660821 24.5469462,17.323689 23.8906108,19.4156061 C23.2342753,21.5075233 21.9872379,22.2266198 21.7903373,22.1612474 C21.5934366,22.095875 21.7903373,21.7690129 21.7903373,21.7690129 C21.7903373,21.7690129 21.4621696,21.5075233 21.0027347,22.2266198 C20.6152343,22.8330797 19.9476098,23.1605954 19.7480839,23.2482598 C19.9621149,23.1272555 20.0182315,22.6842267 20.0182315,22.6842267 C20.0182315,22.6842267 19.5587967,22.9457163 17.4585232,23.2725784 C15.3582498,23.5994404 14.3737466,22.6842267 14.3737466,22.6842267 C14.5706472,22.4881094 15.4895169,22.6842267 15.4895169,22.6842267 C15.4895169,22.4881094 14.4393801,22.1612474 13.3892434,22.0305026 C12.5354822,21.924207 12.1215314,21.5298153 11.9234494,21.2135435 C11.5297138,20.949962 11.1994458,20.65997 10.9254913,20.3531119 C10.6115005,20.0014737 10.3717411,19.627805 10.1929553,19.248645 C9.83512124,18.4896059 9.72091887,17.7116742 9.72085324,17.0243487 C9.7209845,16.3753314 9.8223227,15.8046302 9.92359526,15.3929148 C10.0249991,14.9813301 10.1267311,14.7286004 10.1313254,14.7172909 L10.1453054,14.722913 C10.2685652,14.3451258 10.5105561,14.0414056 10.7969809,13.9175902 C10.7071285,13.8565324 10.614979,13.7997238 10.5197448,13.7496485 C10.0911577,13.521368 9.6053382,13.426578 9.12785415,13.5054825 C8.64931996,13.5809877 8.19119781,13.8171782 7.78400729,14.1271742 C7.39329079,14.4240957 7.08231905,14.846859 6.87832999,15.3134873 C6.67289699,15.7816845 6.56998359,16.2983881 6.57004923,16.8177065 C6.56958979,17.3374172 6.67224066,17.8595466 6.86146217,18.3512779 C7.05015861,18.8436629 7.32411304,19.3055844 7.65523428,19.7237717 C7.98642115,20.1426127 8.37418414,20.5185041 8.79482954,20.8537992 C8.35613491,20.5422343 7.94553145,20.1868698 7.58618778,19.7811033 C7.22704102,19.3759904 6.91967912,18.9194949 6.6954093,18.4198536 C6.4708113,17.9210621 6.33101185,17.3790594 6.30049225,16.8252897 C6.26957885,16.2721084 6.34761714,15.7079444 6.54484594,15.1798661 C6.74246855,14.6527684 7.0565907,14.1594681 7.50368642,13.7774318 C7.71968642,13.5972654 7.95478578,13.4335729 8.21003464,13.2981213 C8.46495533,13.1626042 8.74206016,13.0568971 9.03373564,12.9974082 C9.32501732,12.9377885 9.63021331,12.9264791 9.92779581,12.9677945 C10.2257065,13.0081946 10.5142972,13.0993891 10.7814913,13.225754 C11.0491449,13.3521842 11.2962552,13.5127389 11.5226253,13.695324 C11.6357776,13.78678 11.7439417,13.8837273 11.8471176,13.9864274 C11.8987712,14.0377447 11.9490465,14.0905003 11.9982716,14.1451516 C12.039227,14.191043 12.0770975,14.2345157 12.1180529,14.2862253 C12.3519052,13.6823803 12.1879526,12.6730303 12.149557,12.4611583 C12.0257721,12.2866139 11.8501367,12.0664397 11.6522516,11.7521291 C11.5030665,11.514958 11.3417393,11.2239854 11.1766053,10.8537814 C10.9182716,10.2749741 10.8292726,9.6923098 10.8293382,9.16599652 C10.8295351,8.55143048 10.9494476,8.01125825 11.0687694,7.62150793 C11.1056554,7.50135344 11.1424758,7.39551551 11.1760146,7.30615142 C11.5469098,5.69923218 13.3234129,4.1184619 13.3234129,4.1184619 C10.8293382,3.79159985 9.122866,6.07963424 9.122866,6.07963424 C9.11597448,6.07538503 9.10888605,6.07159343 9.1019289,6.0674096 C8.92504649,6.26267699 8.32548405,6.96111583 8.2696299,7.51782729 C8.2696299,7.51782729 8.2903701,6.51736791 8.54154968,5.81788311 C7.5899289,5.51586257 6.46989243,5.67367157 5.89546764,5.79225712 L5.89920875,5.81304555 C5.31060711,5.91822976 4.77300273,6.14382995 4.29538742,6.4278077 C3.81796901,6.71158934 3.40152416,7.05348705 3.05931085,7.38466368 C2.37567183,8.04557876 1.98974658,8.66289044 1.98574294,8.66975454 L1.98580857,8.67001603 L1.96729991,8.65864123 C0.759314494,10.4023849 0,14.1205716 0,14.1205716 C0.131267092,13.5322199 0.721969006,12.8131233 0.721969006,12.8131233 C0.065633546,13.7937095 0.196900638,18.3044059 0.196900638,18.3044059 C0.196900638,17.5853094 0.590701914,16.735468 0.590701914,16.735468 C0.721969006,18.2390335 1.37830447,23.0765919 5.64448496,26.7374469 C9.91066545,30.3983019 13.5205105,30.725164 13.5205105,30.725164 C12.6672744,30.4636744 12.4703737,30.0714399 12.4703737,30.0714399 C15.2269827,31.1827709 16.9334549,30.9866536 16.9334549,30.9866536 C16.4740201,30.725164 16.4083865,30.5290468 16.4083865,30.5290468 C19.3618961,30.6597916 23.2999088,29.613833 24.2187785,28.9601089 C25.1376481,28.3063848 25.9252507,26.9989366 25.9252507,26.9989366 C28.2880583,25.8876056 29.928897,23.5995712 30.3883318,22.4228678 C30.8477666,21.2461644 30.3883318,20.0040886 30.3883318,20.0040886 C30.3883318,20.0040886 30.3883318,19.9387162 31.5041021,17.4545645 C32.6198724,14.9704129 31.5041021,11.440172 31.5041021,11.440172 C31.5041021,11.9715843 31.0222862,12.7162414 30.929021,12.8552885 C30.9484485,12.8059324 30.9790337,12.6502153 30.9790337,12.1592685 C30.9790337,11.440172 31.1759344,9.60974444 30.2570647,7.5831997 C29.3381951,5.55665495 27.9598906,4.57606878 27.9598906,4.57606878 L27.9598906,5.03367566 C27.8396281,4.63439569 27.1072522,4.01563163 26.5553569,3.59444641 Z M5.22285506,5.05067249 C5.25199635,5.02118953 5.28048131,4.99118359 5.30988514,4.96189675 C6.66633364,3.61084513 8.24567366,2.55017776 10.0041276,1.80944297 C11.8242771,1.04262459 13.7582352,0.653789484 15.7521167,0.653789484 C17.6342899,0.653789484 19.4628405,1.0006555 21.1928751,1.68445092 C22.2033692,1.85834153 23.5503008,2.19317902 24.6725032,2.82859886 C22.1542097,1.0473314 19.0759964,0 15.7521167,0 C11.4427493,0 7.54680766,1.76100201 4.74825889,4.59907987 C4.87847584,4.75669276 5.03527438,4.90868361 5.22285506,5.05067249 Z M10.698268,16.6046578 C10.5908915,16.5155552 10.4990702,16.420373 10.420835,16.3210723 C10.394516,16.5404621 10.3771231,16.7765219 10.3771887,17.0244141 C10.3771231,17.4862048 10.4350775,17.9847348 10.5935169,18.4788848 C10.7521531,18.9732964 11.0098304,19.4635895 11.4159708,19.9187776 C11.6869717,20.2222363 12.0245907,20.5105286 12.4468769,20.7725413 L12.4232489,20.8103919 C13.2164303,20.8247084 14.5072452,20.809542 15.1613491,20.5923749 C16.1458523,20.2655128 17.7210574,19.023437 17.7210574,19.023437 C18.1148587,18.6312026 18.5742935,18.8273198 18.9680948,18.8273198 C19.3618961,18.8273198 19.4931632,18.2389681 18.9680948,17.6506164 C18.4430264,17.0622647 16.6052871,16.473913 15.2269827,17.3891267 C13.8486782,18.3043405 11.8796718,17.585244 10.698268,16.6046578 Z M11.6496263,7.97719922 C11.5618086,8.30301532 11.4856737,8.71649582 11.4858706,9.16612726 C11.4859362,9.62000791 11.562268,10.1081437 11.7765615,10.5883694 C11.9485214,10.9735437 12.1108332,11.2560832 12.258443,11.4829255 C12.3622097,11.6423035 12.4588879,11.7740942 12.5493965,11.8967982 C12.734155,11.7274183 12.950155,11.5575154 13.1267748,11.4402373 C13.5205761,11.1787477 15.0301477,10.4596512 15.2270483,10.2635339 C15.423949,10.0674167 15.8177502,9.02145812 15.4895825,8.69459606 C15.1614148,8.367734 13.0611413,8.56385124 12.4048058,8.43310642 C12.1282261,8.37799747 11.8635916,8.18364529 11.6496263,7.97719922 Z M12.0734877,14.3784096 C12.0767944,14.3868544 12.078501,14.3917717 12.078501,14.3917717 C12.082661,14.3835406 12.0860744,14.3747751 12.0901277,14.3664372 L12.0734877,14.3784096 Z M3.94661076,5.87397263 C4.22345305,5.70851506 4.52228259,5.5591391 4.84099909,5.43584674 C3.57735643,4.38760012 3.67547858,3.00719629 3.67547858,3.00719629 C2.41111395,4.22312314 2.10257065,6.27529387 2.03785597,7.51632372 C2.0557083,7.49546992 2.07349499,7.47461612 2.09213491,7.45330472 C2.51986873,6.96327312 3.14417502,6.35393688 3.94661076,5.87397263 Z" id="Shape" fill="#FFFFFF" sketch:type="MSShapeGroup"></path>
    </g>
</svg>