<svg width="140" height="95" xmlns="http://www.w3.org/2000/svg"><g fill-rule="nonzero" fill="none"><rect width="139.39" height="94.9" rx="8" fill="#FFF"/><path fill="#FF5F00" d="M52.37 19.14h34.66v56.61H52.37z"/><path d="M55.94 47.45a35.94 35.94 0 0 1 13.75-28.3c-14.76-11.6-35.956-9.91-48.693 3.881-12.736 13.792-12.736 35.056 0 48.848C33.734 85.67 54.93 87.359 69.69 75.76a35.94 35.94 0 0 1-13.75-28.31z" fill="#EB001B"/><path d="M124.5 69.76V68.6h.5v-.24h-1.19v.24h.47v1.16h.22zm2.31 0v-1.4h-.36l-.42 1-.42-1h-.36v1.4h.26V68.7l.39.91h.27l.39-.91v1.06h.25zM127.94 47.45a36 36 0 0 1-58.25 28.3 36 36 0 0 0 0-56.61 36 36 0 0 1 58.25 28.3v.01z" fill="#F79E1B"/></g></svg>
