<svg width="100" height="32" xmlns="http://www.w3.org/2000/svg"><path d="M43.333 31.538h-8.1L40.299.562h8.1l-5.066 30.976zM72.7 1.318l-1.102 6.69-.732-.33c-1.466-.625-3.401-1.251-6.035-1.185-3.198 0-4.632 1.35-4.665 2.669 0 1.45 1.735 2.405 4.568 3.823 4.667 2.208 6.832 4.91 6.8 8.436-.066 6.426-5.6 10.579-14.1 10.579-3.634-.033-7.134-.793-9.034-1.649l1.134-6.953 1.066.495c2.634 1.154 4.367 1.647 7.6 1.647 2.333 0 4.834-.956 4.866-3.031 0-1.352-1.066-2.341-4.2-3.857-3.066-1.483-7.166-3.955-7.1-8.404C51.8 4.218 57.435 0 65.434 0c3.134 0 5.668.692 7.266 1.319zm10.766 19.246H90.2c-.333-1.548-1.867-8.963-1.867-8.963l-.567-2.67c-.4 1.154-1.099 3.032-1.065 2.966 0 0-2.567 6.888-3.235 8.667zm10-20.002L100 31.538h-7.5s-.734-3.56-.967-4.647h-10.4l-1.7 4.647h-8.5L82.964 3.132c.834-2.01 2.302-2.57 4.234-2.57h6.266zM8.513 4.589C6.022 3.15 3.179 1.991 0 1.187L.133.562h13.034c1.766.065 3.2.625 3.666 2.603l2.833 14.233v.003l.867 4.284L28.467.562h8.565L24.3 31.506h-8.566L8.513 4.589z" fill="#FFF" fill-rule="nonzero"/></svg>