<svg width="45" height="45" xmlns="http://www.w3.org/2000/svg" xmlns:xlink="http://www.w3.org/1999/xlink"><defs><linearGradient x1="50%" y1="100%" x2="50%" y2="0%" id="b"><stop stop-color="#FFF" stop-opacity="0" offset="0%"/><stop stop-color="#FFF" offset="100%"/></linearGradient><path d="M15.509 15H29.49A1.5 1.5 0 0 1 31 16.5v.5H14v-.5c0-.828.666-1.5 1.509-1.5zM15 14v-.5c0-.828.664-1.5 1.493-1.5h12.014c.825 0 1.493.666 1.493 1.5v.5H15zm15.51 4A1.5 1.5 0 0 1 32 19.496v9.008C32 29.33 31.324 30 30.51 30H14.49A1.5 1.5 0 0 1 13 28.504v-9.008c0-.826.676-1.496 1.49-1.496h16.02z" id="a"/></defs><g fill="none" fill-rule="evenodd"><use fill="#FB0" xlink:href="#a"/><use fill-opacity=".2" fill="url(#b)" xlink:href="#a"/><g fill="#FFC119"><path d="M35.055 2.469V0v2.469a2.7 2.7 0 0 0 2.7 2.7h1.82-1.82a2.7 2.7 0 0 0-2.7 2.7v2.469-2.47a2.7 2.7 0 0 0-2.7-2.7h-1.82 1.82a2.7 2.7 0 0 0 2.7-2.7z"/><path d="M4.52 14.907V12.44v2.468a2.7 2.7 0 0 0 2.7 2.7h1.821-1.82a2.7 2.7 0 0 0-2.7 2.7v2.47-2.47a2.7 2.7 0 0 0-2.7-2.7H0h1.82a2.7 2.7 0 0 0 2.7-2.7z" opacity=".3"/><path d="M28.425 37.131v-2.469 2.47a2.7 2.7 0 0 0 2.7 2.7h1.82-1.82a2.7 2.7 0 0 0-2.7 2.7V45v-2.469a2.7 2.7 0 0 0-2.7-2.7h-1.82 1.82a2.7 2.7 0 0 0 2.7-2.7z" opacity=".2"/><path d="M40.48 23.09v-2.47 2.47a2.7 2.7 0 0 0 2.7 2.7H45h-1.82a2.7 2.7 0 0 0-2.7 2.7v2.468-2.469a2.7 2.7 0 0 0-2.7-2.7h-1.821 1.82a2.7 2.7 0 0 0 2.7-2.7z" opacity=".5"/><path d="M39.877 9.14v-.626.626a2.11 2.11 0 0 0 2.11 2.11 2.11 2.11 0 0 0-2.11 2.11v.626-.626a2.11 2.11 0 0 0-2.11-2.11 2.11 2.11 0 0 0 2.11-2.11z" opacity=".2"/><path d="M11.548 1.843v-.627.627a2.11 2.11 0 0 0 2.11 2.11 2.11 2.11 0 0 0-2.11 2.11v.626-.627a2.11 2.11 0 0 0-2.11-2.11 2.11 2.11 0 0 0 2.11-2.109zM7.036 35.052l.293-2.214.292 2.214a2.7 2.7 0 0 0 2.677 2.347h.346-.346a2.7 2.7 0 0 0-2.677 2.346l-.292 2.214-.293-2.214a2.7 2.7 0 0 0-2.677-2.346h-.345.345a2.7 2.7 0 0 0 2.677-2.347z"/></g></g></svg>