<svg width="40" height="40" xmlns="http://www.w3.org/2000/svg"><path d="M6.509 14.126A.998.998 0 0 0 6 15c0 .556.446 1 .997 1h26.006A.994.994 0 0 0 34 15c0-.376-.204-.7-.507-.872L20.785 5.564c-.468-.315-1.204-.31-1.66 0L6.508 14.126zM25 30V19h2v11h-2zm-4 0V19h-2v11h2zm-6 0V19h-2v11h2zm-6 0V19H6.997A.996.996 0 0 1 6 18c0-.552.44-1 .997-1h26.006c.55 0 .997.444.997 1 0 .552-.44 1-.997 1H31v11h2.003c.55 0 .997.444.997 1 0 .552-.44 1-.997 1H6.997A.996.996 0 0 1 6 31c0-.552.44-1 .997-1H9zm-5 4c0-.552.452-1 .993-1h30.014c.549 0 .993.444.993 1 0 .552-.452 1-.993 1H4.993A.994.994 0 0 1 4 34zm15.993-21.01a2.009 2.009 0 0 0 2.014-2.002 2.009 2.009 0 0 0-2.014-2.002 2.009 2.009 0 0 0-2.015 2.002c0 1.106.902 2.003 2.015 2.003z" fill="#26334D" fill-rule="evenodd"/></svg>