<svg width="80" height="80" xmlns="http://www.w3.org/2000/svg"><path d="M66.965 28.24A2 2 0 0 1 66 31.995H14a2 2 0 0 1-1.088-3.68h-.008l25.948-18.183a2 2 0 0 1 2.296 0l25.82 18.11zM50 59.999h4V37.995h-4v22.003zm-8 0V37.995h-4v22.003h4zm-12 0V37.995h-4v22.003h4zm-12 0V37.995h-4a2 2 0 0 1 0-4.001h52a2 2 0 1 1 0 4h-4v22.004h4a2 2 0 0 1 2 2V62a2 2 0 0 1-2 2H14a2 2 0 1 1 0-4h4zM10 66h60a2 2 0 0 1 2 2V68a2 2 0 0 1-2 2H10a2 2 0 1 1 0-4zm30-40.006a4 4 0 1 0 0-8.001 4 4 0 0 0 0 8z" fill="#202D4A" fill-rule="evenodd"/></svg>