<svg width="20" height="20" xmlns="http://www.w3.org/2000/svg"><path d="M10.998 5.412v6.59c0 .55-.444.996-1 .996-.552 0-1-.445-1-.995v-6.59L6.875 7.535A1 1 0 1 1 5.46 6.122L9.12 2.46a.98.98 0 0 1 .084-.075.998.998 0 0 1 .793-.388 1 1 0 0 1 .791.386c.03.024.059.05.086.077l3.66 3.66a1 1 0 1 1-1.414 1.414l-2.123-2.123zm-7 10.586h12v-5.003c0-.55.444-.997 1-.997.552 0 1 .453 1 .997v6.006a.996.996 0 0 1-1.5.862 1.008 1.008 0 0 1-.507.135H4.005c-.184 0-.356-.048-.505-.133A1 1 0 0 1 1.998 17v-6.006c0-.55.444-.997 1-.997.552 0 1 .453 1 .997v5.003z" fill="#26334D" fill-rule="evenodd"/></svg>
