<svg width="20" height="17" xmlns="http://www.w3.org/2000/svg"><path d="M20 1.972a8.046 8.046 0 0 1-2.357.664A4.205 4.205 0 0 0 19.448.307a8.082 8.082 0 0 1-2.606 1.021A4.05 4.05 0 0 0 13.848 0C11.58 0 9.744 1.883 9.744 4.207c0 .33.036.651.107.959C6.44 4.992 3.417 3.316 1.393.77a4.267 4.267 0 0 0-.555 2.115c0 1.46.724 2.747 1.825 3.502a4.004 4.004 0 0 1-1.858-.526v.053c0 2.04 1.413 3.74 3.29 4.126a4.008 4.008 0 0 1-1.852.072C2.764 11.784 4.28 13 6.075 13.035A8.107 8.107 0 0 1 0 14.775a11.408 11.408 0 0 0 6.29 1.892c7.548 0 11.673-6.411 11.673-11.972 0-.183-.004-.363-.011-.544A8.477 8.477 0 0 0 20 1.973" fill="#1DA1F2" fill-rule="evenodd"/></svg>