<svg width="17" height="20" xmlns="http://www.w3.org/2000/svg"><path d="M11.18 1.835c1.68.872 2.816 2.53 2.819 4.433H2.94c.002-1.902 1.137-3.56 2.818-4.433L4.884.26a.176.176 0 0 1 .07-.239.177.177 0 0 1 .239.068l.884 1.592c.724-.32 1.535-.5 2.393-.5.857 0 1.668.18 2.392.5L11.747.09a.177.177 0 0 1 .24-.068.176.176 0 0 1 .068.239l-.874 1.574zm-3.476 14.2h1.592v2.728c0 .683.568 1.237 1.27 1.237.701 0 1.27-.554 1.27-1.237v-2.728h.829a1.33 1.33 0 0 0 1.334-1.33v-8H2.94v8c0 .737.597 1.33 1.334 1.33h.89v2.728c0 .683.568 1.237 1.27 1.237.7 0 1.27-.554 1.27-1.237v-2.728zm8.026-9.542c-.701 0-1.27.553-1.27 1.237v5.152c0 .683.569 1.237 1.27 1.237.702 0 1.27-.553 1.27-1.237V7.73c0-.684-.568-1.237-1.27-1.237zm-14.46 0c.701 0 1.27.553 1.27 1.237v5.152c0 .683-.569 1.237-1.27 1.237-.702 0-1.27-.553-1.27-1.237V7.73c0-.684.568-1.237 1.27-1.237zm5.11-2.704a.461.461 0 1 0-.923 0 .461.461 0 0 0 .923 0zm5.103 0a.461.461 0 1 0-.922 0 .461.461 0 0 0 .922 0z" fill="#FFF" fill-rule="evenodd"/></svg>