<svg width="80" height="80" xmlns="http://www.w3.org/2000/svg"><path d="M74 23H6v-.872c0-1.783.186-2.43.534-3.082a3.635 3.635 0 0 1 1.512-1.512c.652-.348 1.299-.534 3.082-.534h57.744c1.783 0 2.43.186 3.082.534.652.349 1.163.86 1.512 1.512.348.652.534 1.299.534 3.082V23zm0 8v26.872c0 1.783-.186 2.43-.534 3.082a3.635 3.635 0 0 1-1.512 1.512c-.652.348-1.299.534-3.082.534H11.128c-1.783 0-2.43-.186-3.082-.534a3.635 3.635 0 0 1-1.512-1.512C6.186 60.302 6 59.655 6 57.872V31h68zm-61 5a2 2 0 0 0-2 2v6a2 2 0 0 0 2 2h36a2 2 0 0 0 2-2v-6a2 2 0 0 0-2-2H13zm47 14a4 4 0 1 0 0 8h6a4 4 0 1 0 0-8h-6z" fill="#202D4A" fill-rule="evenodd"/></svg>
