<svg width="20" height="20" xmlns="http://www.w3.org/2000/svg" xmlns:xlink="http://www.w3.org/1999/xlink"><defs><path d="M6.96 4.8c0-.94-.524-1.76-1.46-1.76-.936 0-1.46.82-1.46 1.76v6.42c0 .94.524 1.76 1.46 1.76.936 0 1.46-.82 1.46-1.76V4.8zM5.5 17.02c.832 0 1.54-.668 1.54-1.49 0-.805-.708-1.49-1.54-1.49-.832 0-1.54.685-1.54 1.49 0 .822.708 1.49 1.54 1.49zm4.68-6.05c-.073.828.447 1.455 1.267 1.527.82.072 1.44-.455 1.513-1.285l.032-.36c1.814-.205 3.21-1.156 3.41-3.464.22-2.525-1.7-4.183-4.052-4.39-1.765-.153-4.166.8-4.344 2.838-.063.72.452 1.402 1.165 1.465 1.427.125 1.377-1.97 2.964-1.83.82.072 1.475 1.2 1.426 1.76-.072.83-.727 1.336-1.58 1.425-.74.062-1.427.093-1.512 1.067l-.29 1.247zm1.32 6.05c.832 0 1.54-.668 1.54-1.49 0-.805-.708-1.49-1.54-1.49-.832 0-1.54.685-1.54 1.49 0 .822.708 1.49 1.54 1.49z" id="a"/></defs><g fill="none" fill-rule="evenodd"><use xlink:href="#a"/><use fill="#B8BECC" xlink:href="#a"/></g></svg>