<svg width="20" height="20" xmlns="http://www.w3.org/2000/svg"><path d="M12.01 11c.546 0 .99.443.99.999v1.002a1 1 0 0 1-.99.999H7.99a.992.992 0 0 1-.99-.999V12s-2 .006-2 .01v.98C5 14.65 6.343 16 8 16h1v2h2v-2h1c1.651 0 3-1.347 3-3.01v-.98C15 10.35 13.657 9 12 9H7.99A.992.992 0 0 1 7 8.001V6.999A1 1 0 0 1 7.99 6h4.02c.546 0 .99.443.99.999V8s2-.006 2-.01v-.98C15 5.35 13.657 4 12 4h-1V2H9v2H8C6.35 4 5 5.347 5 7.01v.98C5 9.65 6.343 11 8 11h4.01z" fill="#26334D" fill-rule="evenodd" opacity=".9"/></svg>