<svg width="20" height="20" xmlns="http://www.w3.org/2000/svg"><path d="M13.802 18.711c2.535-1.132 4.259-3.36 4.259-5.925h.005c0-5.374-3.68-7.576-5.38-8.061C14.03 9 10.037 10.013 10.03 9.992 12.937 2.79 6.135.712 6.135.712c3.148 6.735-4.197 5.356-4.197 12.074 0 2.565 1.724 4.793 4.259 5.925a2.61 2.61 0 0 1-.228-1.063c0-1.768.907-4.268 4.03-6.205 0 2.661 1.605 4.392 1.605 4.392.71-.363 1.066-1.31 1.066-1.31s1.349 1.052 1.36 3.123c0 .372-.08.73-.228 1.063z" fill="#26334D" fill-rule="evenodd"/></svg>