<svg width="20" height="20" viewBox="335 20 20 20" xmlns="http://www.w3.org/2000/svg"><path d="M347 23.29v-2.298c0-.537-.452-.992-1.01-.992h-1.98a.995.995 0 0 0-1.01.992v2.298c-.466.138-.91.324-1.33.551l-1.626-1.625a1.008 1.008 0 0 0-1.415.012l-1.4 1.401c-.4.4-.4 1.028-.013 1.415l1.625 1.626c-.227.42-.413.864-.551 1.33h-2.298c-.537 0-.992.452-.992 1.01v1.98c0 .567.444 1.01.992 1.01h2.298c.138.466.324.91.551 1.33l-1.625 1.626c-.38.379-.382 1.02.012 1.415l1.401 1.4c.4.4 1.028.4 1.415.013l1.626-1.625c.42.227.864.413 1.33.551v2.298c0 .537.452.992 1.01.992h1.98a.995.995 0 0 0 1.01-.992V36.71c.466-.138.91-.324 1.33-.551l1.626 1.625c.379.38 1.02.382 1.415-.012l1.4-1.401c.4-.4.4-1.028.013-1.415l-1.625-1.626c.227-.42.413-.864.551-1.33h2.298c.537 0 .992-.452.992-1.01v-1.98a.995.995 0 0 0-.992-1.01h-2.298a6.957 6.957 0 0 0-.551-1.33l1.625-1.626c.38-.379.382-1.02-.012-1.415l-1.401-1.4a.995.995 0 0 0-1.415-.013l-1.626 1.625a6.957 6.957 0 0 0-1.33-.551zM345 34a4 4 0 1 0 0-8 4 4 0 0 0 0 8z" fill="#26334D" fill-rule="evenodd" opacity=".5"/></svg>