<svg width="20" height="20" xmlns="http://www.w3.org/2000/svg"><path d="M5.15 17.632a1.493 1.493 0 0 1-1.87-.21l-.701-.701a1.5 1.5 0 0 1-.225-1.848C.457 11.925.461 8.103 2.36 5.135a1.493 1.493 0 0 1 .22-1.856l.7-.7a1.5 1.5 0 0 1 1.856-.22c2.967-1.898 6.79-1.902 9.738-.005a1.493 1.493 0 0 1 1.848.225l.7.7c.508.507.586 1.288.21 1.87 1.83 2.928 1.81 6.689-.056 9.62a1.492 1.492 0 0 1-.154 1.952l-.7.7a1.497 1.497 0 0 1-1.952.154c-2.931 1.865-6.691 1.886-9.62.057zm2.062-2.304a6.03 6.03 0 0 0 5.56-.061 1.501 1.501 0 0 1 .413-1.381l.7-.7a1.508 1.508 0 0 1 1.381-.413 6.03 6.03 0 0 0 .062-5.56 1.5 1.5 0 0 1-1.442-.398l-.7-.7a1.506 1.506 0 0 1-.39-1.475 6.03 6.03 0 0 0-5.594-.012 1.5 1.5 0 0 1-.387 1.486l-.7.7a1.506 1.506 0 0 1-1.486.387 6.03 6.03 0 0 0 .01 5.594 1.5 1.5 0 0 1 1.475.39l.7.7c.391.391.528.943.398 1.443zm6.68-.735a.49.49 0 0 0-.01.704l1.428 1.427a.495.495 0 0 0 .704-.01l.7-.7a.49.49 0 0 0 .01-.704l-1.427-1.428a.495.495 0 0 0-.704.01l-.7.7zm-.01-9.89a.495.495 0 0 0 .01.704l.7.7a.49.49 0 0 0 .705.01l1.427-1.427a.495.495 0 0 0-.01-.704l-.7-.7a.49.49 0 0 0-.704-.01l-1.428 1.427zM3.286 3.986a.49.49 0 0 0-.01.704l1.427 1.428a.495.495 0 0 0 .704-.01l.7-.7a.49.49 0 0 0 .01-.705L4.69 3.276a.495.495 0 0 0-.704.01l-.7.7zm-.01 11.324a.495.495 0 0 0 .01.704l.7.7a.49.49 0 0 0 .704.01l1.428-1.427a.495.495 0 0 0-.01-.704l-.7-.7a.49.49 0 0 0-.705-.01L3.276 15.31z" fill="#26334D" fill-rule="evenodd"/></svg>