<svg width="20" height="20" xmlns="http://www.w3.org/2000/svg"><path d="M11.515 5.958h-.002l-.706.706A1 1 0 1 1 9.393 5.25l2.121-2.122c.02-.02.041-.04.063-.058a4 4 0 0 1 5.596 5.717l-1.415 1.415-.002-.002-.706.706a1 1 0 1 1-1.453-1.373l2.162-2.163a1.994 1.994 0 0 0 0-2.827 1.994 1.994 0 0 0-2.828-.001l-1.416 1.416zm-2.086 7.743a1 1 0 0 1 1.372 1.454l-.701.701.002.002-1.415 1.414a4 4 0 1 1-5.715-5.597c.018-.021.037-.042.057-.062l2.122-2.122a.997.997 0 0 1 1.414 0 .997.997 0 0 1 0 1.414l-.708.708.001.002-1.415 1.415a1.994 1.994 0 0 0 .002 2.827 1.994 1.994 0 0 0 2.827 0l2.157-2.156zm-3.573-.676l7.071-7.071a1 1 0 0 1 1.414 1.414l-7.07 7.071a1 1 0 0 1-1.414-1.414h-.001z" fill="#26334D" fill-rule="evenodd"/></svg>