<svg width="20" height="20" xmlns="http://www.w3.org/2000/svg"><path d="M6 5c0-.552.45-1 1.007-1h11.986C19.55 4 20 4.444 20 5c0 .552-.45 1-1.007 1H7.007A1.001 1.001 0 0 1 6 5zm0 5c0-.552.45-1 1.007-1h11.986C19.55 9 20 9.444 20 10c0 .552-.45 1-1.007 1H7.007A1.001 1.001 0 0 1 6 10zm0 5c0-.552.45-1 1.007-1h11.986c.556 0 1.007.444 1.007 1 0 .552-.45 1-1.007 1H7.007A1.001 1.001 0 0 1 6 15zM0 5c0-1.105.888-2 2-2 1.105 0 2 .888 2 2 0 1.105-.888 2-2 2-1.105 0-2-.888-2-2zm0 5c0-1.105.888-2 2-2 1.105 0 2 .888 2 2 0 1.105-.888 2-2 2-1.105 0-2-.888-2-2zm0 5c0-1.105.888-2 2-2 1.105 0 2 .888 2 2 0 1.105-.888 2-2 2-1.105 0-2-.888-2-2z" fill="#26334D" fill-rule="evenodd"/></svg>