<svg width="20" height="14" xmlns="http://www.w3.org/2000/svg"><path d="M6 2c0-.552.45-1 1.007-1h11.986A1 1 0 0 1 20 2c0 .552-.45 1-1.007 1H7.007A1 1 0 0 1 6 2zm0 5c0-.552.45-1 1.007-1h11.986A1 1 0 0 1 20 7c0 .552-.45 1-1.007 1H7.007A1 1 0 0 1 6 7zm0 5c0-.552.45-1 1.007-1h11.986A1 1 0 0 1 20 12c0 .552-.45 1-1.007 1H7.007A1 1 0 0 1 6 12zM0 2C0 .895.888 0 2 0c1.105 0 2 .888 2 2 0 1.105-.888 2-2 2-1.105 0-2-.888-2-2zm0 5c0-1.105.888-2 2-2 1.105 0 2 .888 2 2 0 1.105-.888 2-2 2-1.105 0-2-.888-2-2zm0 5c0-1.105.888-2 2-2 1.105 0 2 .888 2 2 0 1.105-.888 2-2 2-1.105 0-2-.888-2-2z" fill="#28DB67" fill-rule="evenodd"/></svg>