<svg width="20" height="20" xmlns="http://www.w3.org/2000/svg"><path d="M11 11.008c.244.017.366.06.488.126.163.087.291.215.378.378.088.163.134.324.134.77v5.436c0 .446-.046.607-.134.77a.909.909 0 0 1-.378.378c-.163.088-.324.134-.77.134H9.282c-.446 0-.607-.046-.77-.134a.909.909 0 0 1-.378-.378c-.088-.163-.134-.324-.134-.77v-5.436c0-.446.046-.607.134-.77a.909.909 0 0 1 .378-.378c.122-.066.244-.109.488-.126V10H4a2 2 0 0 1-2-2h8a1 1 0 0 1 1 1v2.008zM3.316 2h13.368c.594 0 .967.093 1.293.267.326.174.582.43.756.756.174.326.267.699.267 1.293v.368c0 .594-.093.967-.267 1.293-.174.326-.43.582-.756.756-.326.174-.699.267-1.293.267H3.316c-.594 0-.967-.093-1.293-.267a1.817 1.817 0 0 1-.756-.756C1.093 5.65 1 5.278 1 4.684v-.368c0-.594.093-.967.267-1.293.174-.326.43-.582.756-.756C2.35 2.093 2.722 2 3.316 2z" fill="#202D4A" fill-rule="nonzero"/></svg>
