<svg width="20" height="20" xmlns="http://www.w3.org/2000/svg"><path d="M10 20c5.523 0 10-4.477 10-10S15.523 0 10 0 0 4.477 0 10s4.477 10 10 10zm-1-5.838c0-.11.056-.164.167-.164h1.666c.111 0 .167.055.167.164v1.672c0 .11-.056.164-.167.164H9.167c-.111 0-.167-.055-.167-.164v-1.672zm.185-2.144c-.12 0-.18-.06-.18-.18V11.1c0-.36.036-.648.108-.864.072-.216.053-.382.36-.666.306-.284.95-.537 1.364-.955.413-.417.524-.553.626-.88a1.68 1.68 0 0 0 .077-.78c-.04-.381-.144-.521-.413-.768a1.438 1.438 0 0 0-1.025-.387c-.42 0-.759.126-1.016.378-.258.252-.43.606-.513 1.062-.024.12-.09.168-.198.144l-1.62-.252c-.119-.012-.167-.084-.143-.216.144-.9.525-1.611 1.142-2.133C8.372 4.261 9.18 4 10.174 4c.492 0 .944.078 1.358.234.414.156.77.372 1.07.648.3.276.534.606.702.99.168.384.252.804.252 1.26 0 .756-.298 1.533-.738 2.106-.439.573-1.193.747-1.42.944-.229.197-.226.33-.28.486-.054.156-.08.372-.08.648v.522c0 .12-.06.18-.18.18H9.185z" fill="#26334D" fill-rule="evenodd"/></svg>