<svg width="20" height="20" xmlns="http://www.w3.org/2000/svg"><path d="M5.229 16.422L3.494 17.93c-.219.19-.41.116-.44-.153l-.62-5.473c-.017-.144.08-.223.216-.188l5.333 1.376c.26.067.303.272.09.457l-1.286 1.118a6 6 0 0 0 9.2-4.649 1 1 0 0 1 1.995.14A8 8 0 0 1 5.23 16.422zm8.035-11.459a6 6 0 0 0-9.247 4.619 1 1 0 0 1-1.996-.14 8 8 0 0 1 12.797-5.83l1.715-1.49c.219-.19.41-.117.44.152l.62 5.473c.016.144-.081.223-.216.188L12.043 6.56c-.26-.067-.302-.272-.09-.457l1.31-1.139z" fill="#26334D" fill-rule="evenodd"/></svg>