<svg width="20" height="20" xmlns="http://www.w3.org/2000/svg"><g fill="#26334D" fill-rule="evenodd"><path d="M13.587 13.997H7.998a.996.996 0 0 1-.997-1c0-.552.453-1 .997-1h5.589l-1.12-1.119a.999.999 0 1 1 1.415-1.414l2.653 2.653c.24.241.335.573.28.885.05.31-.043.638-.28.876l-2.653 2.653a.999.999 0 1 1-1.414-1.414l1.119-1.12zM7 5c0-.552.446-1 .998-1h7.004c.551 0 .998.444.998 1 0 .552-.446 1-.998 1H8a.996.996 0 0 1-.998-1z"/><path d="M14 6V4H8.001a5 5 0 1 0 0 10H14v-2H7.999a3 3 0 1 1 0-6H14z"/></g></svg>