<svg width="24" height="20" xmlns="http://www.w3.org/2000/svg"><path d="M24 2.367a9.655 9.655 0 0 1-2.828.796A5.046 5.046 0 0 0 23.337.369a9.698 9.698 0 0 1-3.127 1.225A4.86 4.86 0 0 0 16.617 0c-2.72 0-4.924 2.26-4.924 5.049 0 .396.043.781.128 1.15C7.729 5.99 4.1 3.98 1.672.925a5.12 5.12 0 0 0-.666 2.538c0 1.752.868 3.297 2.19 4.203a4.805 4.805 0 0 1-2.23-.632l-.001.064c0 2.447 1.697 4.487 3.95 4.951a4.81 4.81 0 0 1-2.224.086c.627 2.006 2.445 3.466 4.6 3.507A9.729 9.729 0 0 1 0 17.731 13.69 13.69 0 0 0 7.548 20c9.057 0 14.008-7.693 14.008-14.366 0-.219-.005-.436-.014-.653A10.172 10.172 0 0 0 24 2.367" fill="#FFF" fill-rule="evenodd"/></svg>