<svg width="40" height="21" viewBox="0 0 40 21" xmlns="http://www.w3.org/2000/svg"><title>dash_banks_bofa</title><g fill="none" fill-rule="evenodd"><path d="M15.487 4.984c1.187.462 2.374.957 3.53 1.517a74.997 74.997 0 0 0-10.688 5.311 69.774 69.774 0 0 0-3.53-1.715 75.63 75.63 0 0 1 10.688-5.113zM11.066 3.433A64.01 64.01 0 0 0 .016 8.151c1.121.428 2.243.857 3.331 1.32a60.95 60.95 0 0 1 10.72-5.014c-.989-.363-1.978-.726-3-1.024z" fill="#0067B1"/><path d="M23.502 4.819a68.898 68.898 0 0 0-9.368-3.662c-1.154.33-2.276.693-3.365 1.056a66.797 66.797 0 0 1 9.632 3.727 86.537 86.537 0 0 1 3.1-1.121zM28.417 3.368A68.015 68.015 0 0 0 18.884.004a47.03 47.03 0 0 0-3.1.692c3.232.957 6.399 2.144 9.433 3.596 1.056-.33 2.144-.66 3.2-.924zM36.333 6.007A83.177 83.177 0 0 0 14.761 16.99a67.3 67.3 0 0 1 4.782 3.232A87.535 87.535 0 0 1 40.028 8.117a58.734 58.734 0 0 0-3.695-2.11zM30.99 3.5A74.484 74.484 0 0 0 8.56 13.593a84.794 84.794 0 0 1 4.518 2.408c6.697-4.618 14.118-8.247 22.035-10.621-1.353-.66-2.704-1.32-4.124-1.88z" fill="#EE2A24"/></g></svg>