<svg width="40" height="26" viewBox="0 0 40 26" xmlns="http://www.w3.org/2000/svg"><title>dash_banks_citi@2x</title><g fill="none" fill-rule="evenodd"><path d="M12.133 20.2l-.07.067c-1.15 1.14-2.48 1.744-3.85 1.744-2.86 0-4.936-2.09-4.936-4.973 0-2.879 2.076-4.971 4.936-4.971 1.37 0 2.7.606 3.85 1.75l.07.069 1.84-2.167-.05-.058C12.395 9.9 10.56 9.043 8.304 9.043c-2.265 0-4.335.742-5.827 2.08C.856 12.573 0 14.617 0 17.038c0 2.42.856 4.468 2.476 5.918 1.492 1.345 3.562 2.083 5.826 2.083 2.257 0 4.092-.857 5.622-2.618l.049-.055-1.84-2.166zM15.832 24.744h3.249V9.294h-3.25v15.45zM31.81 21.385c-.868.514-1.675.772-2.4.772-1.049 0-1.523-.54-1.523-1.742v-8.198h3.309v-2.91h-3.31V4.5l-3.184 1.66v3.148h-2.748v2.91h2.748v8.72c0 2.376 1.445 4 3.602 4.042 1.464.028 2.347-.397 2.884-.708l.031-.023.782-2.979-.192.115zM34.5 24.744h3.252V9.294H34.5v15.45z" fill="#003B70"/><path d="M39.698 6.552C36.724 2.448 31.784 0 26.758 0c-5.024 0-9.965 2.448-12.934 6.552l-.152.211h3.745l.041-.043c2.55-2.563 5.877-3.918 9.3-3.918 3.423 0 6.75 1.355 9.304 3.918l.042.043h3.744l-.15-.21z" fill="#D9261C"/></g></svg>