<svg width="32" height="16" viewBox="0 0 32 16" xmlns="http://www.w3.org/2000/svg"><title>dash_banks_fake_institution@2x</title><g fill="#7E7F7F" fill-rule="evenodd"><path d="M4.846 4.096a3.975 3.975 0 0 0-3.971 3.97v.037l.002.102H.875v7.745h2.261v-4.3l.107.05a3.974 3.974 0 0 0 5.573-3.631c0-2.191-1.781-3.973-3.97-3.973zm0 5.68a1.711 1.711 0 0 1 0-3.42c.942 0 1.709.766 1.709 1.71 0 .943-.767 1.71-1.709 1.71zM31.075.032h-2.26v4.45l-.11-.046a3.974 3.974 0 0 0-5.573 3.632c0 2.19 1.78 3.97 3.971 3.97 2.189 0 3.97-1.78 3.97-3.97 0-.054-.003-.108-.005-.16l-.003-.08h.008V.031h.002zm-3.972 9.743c-.942 0-1.71-.766-1.71-1.71 0-.943.768-1.71 1.71-1.71s1.71.767 1.71 1.71a1.711 1.711 0 0 1-1.71 1.71zM9.333 0h2.26v11.884h-2.26zM19.83 11.913V8.03a3.983 3.983 0 0 0-3.97-3.932 3.975 3.975 0 0 0-3.97 3.97c0 2.19 1.781 3.97 3.97 3.97.69 0 1.275-.213 1.593-.408l.117-.074v.36h2.26v-.003zm-3.97-2.138c-.942 0-1.71-.766-1.71-1.71 0-.943.768-1.71 1.71-1.71a1.711 1.711 0 0 1 0 3.42zM20.583 4.167h2.262v7.923h-2.262zM23.122 1.599c0 .864-.703 1.567-1.568 1.567A1.569 1.569 0 0 1 19.988 1.6a1.567 1.567 0 0 1 3.133 0"/></g></svg>