<svg width="39" height="39" viewBox="0 0 39 39" xmlns="http://www.w3.org/2000/svg"><title>simple</title><g fill="none" fill-rule="evenodd"><path d="M34.093 19.307l.745-.374c-1.027-2.052-2.422-3.635-3.7-4.88-1.267-1.235-2.403-2.185-3.392-3.175-.99-.99-1.936-2.127-3.172-3.396-1.243-1.278-2.826-2.678-4.878-3.705-1.738-.872-3.79-1.433-5.926-1.434-.392 0-.787.02-1.182.06-2.552.256-5.053 1.384-6.914 3.238-1.854 1.857-2.986 4.357-3.248 6.91-.04.398-.06.794-.06 1.189 0 2.133.563 4.183 1.428 5.922 1.026 2.053 2.422 3.637 3.7 4.881 1.27 1.237 2.402 2.187 3.395 3.178l-.001-.001c.988.989 1.937 2.127 3.17 3.394 1.243 1.28 2.826 2.678 4.876 3.706 1.744.87 3.798 1.433 5.934 1.434.39 0 .783-.019 1.176-.059 2.555-.258 5.054-1.386 6.915-3.24 1.857-1.856 2.987-4.358 3.247-6.91v.002c.042-.4.06-.8.062-1.196-.002-2.131-.565-4.18-1.43-5.916v-.002l-.745.374-.747.37c.762 1.526 1.255 3.34 1.255 5.174 0 .342-.018.683-.052 1.026-.218 2.175-1.201 4.34-2.768 5.898-1.563 1.565-3.726 2.545-5.903 2.763-.337.033-.674.05-1.01.05-1.84 0-3.657-.493-5.188-1.258-1.812-.909-3.255-2.17-4.428-3.378-1.181-1.213-2.124-2.345-3.184-3.41l-.002-.001c-1.065-1.061-2.193-2.004-3.41-3.191-1.205-1.176-2.464-2.616-3.37-4.432-.762-1.526-1.254-3.341-1.253-5.178 0-.339.017-.68.051-1.02.22-2.176 1.206-4.341 2.768-5.9 1.563-1.563 3.728-2.543 5.902-2.76.34-.033.678-.05 1.016-.05 1.839-.001 3.654.491 5.18 1.257 1.815.908 3.256 2.17 4.43 3.378 1.183 1.213 2.124 2.345 3.188 3.41 1.063 1.064 2.194 2.007 3.407 3.192 1.207 1.174 2.464 2.615 3.373 4.433l-.002-.002.747-.371" fill="#D87059"/><path d="M30.894 19.305l.794.253c.162-.508.33-1.044.49-1.616v.002c.423-1.493.797-3.256.797-5.202 0-.288-.007-.58-.025-.875v-.002a13.615 13.615 0 0 0-1.11-4.652v-.002a12.594 12.594 0 0 0-1.251-2.187l-.003-.003c-1.502-2.08-3.728-3.682-6.264-4.366a11.315 11.315 0 0 0-5.164-.148 11.72 11.72 0 0 0-2.445.79C14.375 2.35 12.512 4.12 11.242 6.04c-.844 1.276-1.43 2.6-1.853 3.844l-.001.004a24.372 24.372 0 0 0-.524 1.797v-.003c-.438 1.718-.689 3.178-1.055 4.526l-.001.003c-.242.904-.538 1.815-.863 2.829l-.005.014.003-.01c-.158.502-.327 1.037-.49 1.61-.422 1.494-.794 3.256-.794 5.197 0 .289.009.582.026.879.09 1.528.433 3.132 1.11 4.656.337.76.756 1.497 1.251 2.188l.002.001c1.5 2.083 3.727 3.683 6.26 4.367a11.31 11.31 0 0 0 5.164.15 11.788 11.788 0 0 0 2.449-.792c2.337-1.054 4.201-2.82 5.471-4.741.844-1.276 1.431-2.601 1.85-3.846l-.001.003a22.7 22.7 0 0 0 .53-1.803l-.001.002c.436-1.715.69-3.176 1.054-4.525.244-.906.541-1.818.864-2.831l-.794-.253-.794-.253c-.32 1.006-.626 1.94-.886 2.903-.39 1.453-.64 2.907-1.059 4.548v.002a21.227 21.227 0 0 1-.49 1.672l-.002.003c-.384 1.139-.913 2.33-1.661 3.458l-.027.04.026-.038c-1.112 1.689-2.767 3.242-4.763 4.139-.67.3-1.376.53-2.1.679a9.612 9.612 0 0 1-4.398-.127c-2.132-.571-4.064-1.953-5.34-3.73v.001a10.675 10.675 0 0 1-1.082-1.893 11.793 11.793 0 0 1-.97-4.078 13.235 13.235 0 0 1-.023-.781c0-1.727.334-3.335.731-4.743.154-.54.318-1.058.477-1.565l-.001.005c.322-1.008.629-1.944.887-2.907l-.001.002c.393-1.453.64-2.907 1.062-4.548v-.003c.136-.543.296-1.103.488-1.674l-.002.003c.39-1.142.918-2.332 1.667-3.461 1.113-1.69 2.766-3.246 4.763-4.14.668-.3 1.377-.532 2.096-.68a9.697 9.697 0 0 1 1.94-.195c.829 0 1.659.107 2.458.321 2.134.572 4.065 1.955 5.345 3.732l-.002-.004a10.9 10.9 0 0 1 1.085 1.896l.008.02-.01-.022c.583 1.318.89 2.73.97 4.08v-.002c.015.262.023.52.023.777 0 1.73-.335 3.338-.735 4.747v.003a48.188 48.188 0 0 1-.474 1.561l.794.252" fill="#3F7B85"/><path d="M12.764 32.949a14.185 14.185 0 0 1-3.408-.41 10.721 10.721 0 0 1-1.165-2.127c1.233.503 2.532.772 3.782.847.267.016.53.023.791.023h.002c.473 0 .936-.024 1.388-.069.472.481.994.978 1.57 1.465-.925.164-1.916.27-2.96.27m5.052-.75a17.389 17.389 0 0 1-1.61-1.316c.446-.099.876-.209 1.29-.325a45.472 45.472 0 0 0 1.558-.476l.002-.001c1.008-.32 1.946-.623 2.907-.881 1.456-.388 2.906-.637 4.548-1.056.42-.104.849-.223 1.282-.359-.041.13-.084.261-.129.393v.003a16.3 16.3 0 0 1-.608 1.544 8.216 8.216 0 0 1-.136.035c-1.715.435-3.172.688-4.526 1.05-.905.242-1.82.538-2.832.86l.003-.001c-.51.164-1.045.33-1.616.493l-.133.037m-10.888-.523a12.128 12.128 0 0 1-1.897-1.123C2.95 29.05 1.348 26.821.669 24.284a11.189 11.189 0 0 1-.144-5.163v.001c.174-.849.445-1.668.794-2.443.306-.682.675-1.324 1.09-1.921.072.869.232 1.717.464 2.529l-.034.075a9.97 9.97 0 0 0-.681 2.095 9.586 9.586 0 0 0 .12 4.397c.567 2.135 1.95 4.068 3.73 5.347l.055.04a12.821 12.821 0 0 0 .865 2.434M29.106 29.1a22.86 22.86 0 0 0 .63-2.052 13.74 13.74 0 0 0 1.914-1.051 12.013 12.013 0 0 0 2.848-2.624c.066.488.103.982.103 1.478 0 .314-.015.628-.045.942a13.938 13.938 0 0 1-1.987 1.595 16.327 16.327 0 0 1-3.463 1.712m7.118-5.262a13.152 13.152 0 0 0-.464-2.528c.01-.025.022-.048.032-.072l.002-.005c.302-.666.534-1.37.681-2.093l.817.168-.817-.168a9.717 9.717 0 0 0 .198-1.95c0-.826-.105-1.652-.317-2.448v.001c-.568-2.135-1.95-4.068-3.726-5.344l-.004-.002a1.903 1.903 0 0 0-.057-.043 13.15 13.15 0 0 0-.728-2.14l-.001-.003a13.59 13.59 0 0 0-.134-.289A12.08 12.08 0 0 1 33.6 8.043l.003.002c2.082 1.502 3.682 3.73 4.363 6.267v.001a11.335 11.335 0 0 1 .141 5.161 11.529 11.529 0 0 1-.795 2.448l.001-.002c-.307.68-.674 1.32-1.089 1.918m-.44-2.578l.01-.025c0 .002 0 .003-.002.003l-.009.022M4.135 15.222a10.797 10.797 0 0 1-.102-1.482c0-.312.013-.626.043-.938a13.8 13.8 0 0 1 1.988-1.594 16.379 16.379 0 0 1 3.46-1.71c-.046.129-.092.257-.135.385l-.001.004a24.3 24.3 0 0 0-.49 1.66c-.645.294-1.29.64-1.916 1.052a12.01 12.01 0 0 0-2.847 2.623m6.705-4.409c.04-.13.083-.263.128-.396l-.002.003c.174-.51.376-1.03.613-1.549l.134-.034c1.715-.435 3.175-.688 4.525-1.048.907-.245 1.82-.54 2.83-.862a51.561 51.561 0 0 1 1.75-.526 17.33 17.33 0 0 1 1.608 1.314c-.445.1-.876.21-1.29.327a46.4 46.4 0 0 0-1.562.473c-1.005.32-1.94.624-2.905.884-1.453.385-2.905.635-4.546 1.053-.419.106-.848.225-1.283.361m21.796-1.41l-.007-.005.007.005m-2.194-1.219a11.94 11.94 0 0 0-3.782-.846 13.612 13.612 0 0 0-.792-.024h-.003c-.472 0-.935.025-1.387.07a22.816 22.816 0 0 0-1.57-1.464 16.873 16.873 0 0 1 2.96-.272 14.245 14.245 0 0 1 3.41.409c.407.578.755 1.195 1.04 1.832v.003c.043.098.084.195.124.292" fill="#7598A1"/><path d="M15.724 32.678a22.866 22.866 0 0 1-1.57-1.465c.712-.07 1.398-.186 2.052-.33.494.451 1.028.897 1.61 1.315-.65.179-1.35.347-2.092.48m18.832-6.885c.03-.314.045-.628.045-.942 0-.496-.037-.99-.103-1.478.493-.633.923-1.324 1.262-2.063.232.811.392 1.659.464 2.528a13.19 13.19 0 0 1-1.668 1.955M2.873 17.287a13.163 13.163 0 0 1-.464-2.53 13.123 13.123 0 0 1 1.667-1.955 10.797 10.797 0 0 0 .059 2.42 10.45 10.45 0 0 0-1.262 2.065m19.553-9.572a17.33 17.33 0 0 0-1.608-1.314 22.82 22.82 0 0 1 2.09-.481c.576.485 1.097.982 1.57 1.463a17.37 17.37 0 0 0-2.052.332" fill="#767A78"/><path d="M9.356 32.54a12.99 12.99 0 0 1-2.428-.865 12.821 12.821 0 0 1-.864-2.434 10.431 10.431 0 0 0 2.127 1.171 10.721 10.721 0 0 0 1.166 2.128m17.7-2.816a16.3 16.3 0 0 0 .606-1.544l.001-.003c.045-.132.088-.263.13-.393a16.744 16.744 0 0 0 1.943-.737 22.86 22.86 0 0 1-.63 2.053 22.96 22.96 0 0 1-2.05.624M8.898 11.548a24.3 24.3 0 0 1 .489-1.661v-.004c.044-.128.09-.256.136-.385a23.787 23.787 0 0 1 2.054-.627 16.628 16.628 0 0 0-.612 1.549l.002-.003c-.045.133-.087.265-.128.396a17.068 17.068 0 0 0-1.941.734m23.67-2.193a10.59 10.59 0 0 0-2.127-1.17 16.38 16.38 0 0 0-.123-.292l-.001-.003a10.922 10.922 0 0 0-1.04-1.832 12.951 12.951 0 0 1 2.428.865c.046.096.09.192.134.289v.002c.31.702.55 1.421.729 2.141" fill="#407B85"/></g></svg>