<svg width="40" height="31" viewBox="0 0 40 31" xmlns="http://www.w3.org/2000/svg"><title>us</title><path d="M0 0v23.524l19.924 6.779 19.924-6.78V0H0zm19.912 22.784H13.82V20.68h-.062c-1.18 1.66-2.871 2.52-5.391 2.52-2.965 0-5.677-1.818-5.677-5.614V6.231h6.315v8.675c0 1.915.221 3.253 2.073 3.253 1.084 0 2.519-.542 2.519-3.189V6.23h6.315v16.554zm11.77-11.736c-.03-.543-.317-.957-.732-1.244-.383-.319-.895-.479-1.403-.479-.895 0-1.915.193-1.915 1.277 0 .48.383.701.734.86 1.053.447 3.444.574 5.55 1.275 2.105.67 3.955 1.914 3.955 4.626 0 4.59-4.401 5.836-8.421 5.836-3.891 0-8.165-1.562-8.26-5.836h6.026c.033.574.288 1.052.768 1.465.318.288.925.48 1.689.48.83 0 2.137-.318 2.137-1.277 0-.956-.542-1.243-3.477-1.753-4.815-.829-6.76-2.36-6.76-5.197 0-4.178 4.497-5.265 7.814-5.265 3.572 0 7.878.992 8.035 5.233h-5.74z" fill="#D62A43" fill-rule="evenodd"/></svg>