<svg width="40" height="40" viewBox="0 0 40 40" xmlns="http://www.w3.org/2000/svg"><title>dash_banks_wells</title><g fill="none" fill-rule="evenodd"><path d="M0 0h39.86v39.86H0V0z" fill="#CD1309"/><path d="M9.111 23.518c0-.456-.057-.854-.228-1.196-.227-.285-.626-.341-1.253-.341H6.207v1.707h.456c.683 0 .797-.17.797-1.024h.57v2.847h-.57c0-.968-.114-1.196-.797-1.196h-.456v1.481c0 .513.057.513.57.513h.626v.682H3.929v-.682h.341c.456 0 .627-.058.627-.513v-3.36c0-.455-.171-.512-.627-.512H3.93v-.626h5.808v2.22h-.626zM22.208 25.397h-.513c0 .626 0 .911-.341.911-.17 0-.342-.172-.342-.513v-.285c-.057-.796-.227-1.138-1.196-1.423 1.082-.113 1.709-.626 1.709-1.423 0-.968-.684-1.367-2.108-1.367h-3.929v.626h.456c.513 0 .57.058.57.512v3.36c0 .399-.228.513-.57.513h-.399c-.341 0-.512-.114-.683-.513l-1.822-4.498h-1.367l-1.936 4.498c-.17.399-.285.513-.74.513h-.228v.682h2.961v-.682h-.626c-.285 0-.456 0-.456-.172 0-.057.057-.17.114-.285l.284-.683h2.164l.285.627a.617.617 0 0 1 .057.284c0 .229-.171.229-.456.229h-.627v.682h6.435v-.682h-.513c-.513 0-.57 0-.57-.513v-1.481h.57c.968 0 1.253.172 1.31 1.138v.626c.057.798.57 1.026 1.367 1.026.682 0 1.138-.399 1.138-1.481.002-.056.002-.17.002-.226zm-10.933-.911l.91-2.165.855 2.165h-1.765zm7.744-.855l-1.196.057v-1.765h1.196c.797 0 1.196.228 1.196.854v.058c0 .568-.399.796-1.196.796zM27.276 23.118c-.285-.854-.854-1.252-1.765-1.252-.911 0-1.652.74-1.652 2.22 0 1.481.57 2.222 1.652 2.278.74 0 1.424-.398 1.424-1.024v-.342c0-.399-.058-.399-.627-.399h-.284v-.625H28.7v.625h-.228c-.398 0-.456 0-.456.456v1.88h-.512l-.285-.456c-.513.398-1.253.626-1.937.626-.797 0-1.423-.285-1.936-.854a3.013 3.013 0 0 1-.91-2.165c0-.91.284-1.594.854-2.163.512-.513 1.253-.74 2.05-.74.626 0 1.366.17 1.765.625l.284-.625h.456v1.935h-.569zM32.457 27.047c-1.878 0-3.359-1.138-3.359-2.96 0-1.766 1.48-2.904 3.36-2.904 1.878 0 3.302 1.138 3.302 2.96 0 1.766-1.424 2.904-3.303 2.904zm1.936-2.903c0-2.05-1.367-2.278-1.936-2.278-1.082 0-1.936.798-1.936 2.278s.854 2.277 1.936 2.277c.57 0 1.936-.285 1.936-2.277zM23.518 17.367c-.171.342-.57.4-1.253.4H20.84V13.95c0-.455.114-.513.684-.513h.398v-.683h-3.416v.683h.285c.512 0 .797 0 .797.513v3.36c0 .455-.228.512-.74.512h-.286v.627h5.866v-2.278h-.684c0 .512-.057.854-.227 1.195zM16.058 17.766h-1.822V15.83h.399c.683 0 .797.114.854 1.082h.626v-2.848h-.626c-.057.854-.17 1.082-.854 1.082h-.399v-1.708h1.538c1.138 0 1.48.227 1.537 1.537h.626v-2.22H9.51v.683h.399c.341 0 .456.058.456.228 0 .114 0 .228-.057.456l-1.082 2.847h-.057c-.513-1.424-1.196-3.075-1.196-3.075-.057-.114-.057-.171-.057-.228 0-.17.114-.228.399-.228h.456v-.683H5.753v.683h.399c.455 0 .626.228.683.684l-1.139 2.847H5.64c-.512-1.537-1.196-3.132-1.196-3.132-.057-.057 0-.114 0-.17-.057-.171.114-.228.456-.228h.228v-.684h-2.85v.683h.115c.398 0 .74.228.91.74l1.709 4.271h1.024l1.253-3.132 1.31 3.132h1.025l1.594-4.328c.228-.513.342-.683.855-.683h.056c.513 0 .798 0 .798.512v3.36c0 .456-.285.513-.798.513h-.341v.626h6.264v-2.278h-.684c-.056 1.14-.284 1.595-1.309 1.595zM29.838 16.172c0 .513-.057.854-.228 1.196-.17.341-.569.399-1.252.399H26.99v-3.815c0-.456.114-.513.626-.513h.456v-.684H24.6v.683h.4c.455 0 .682 0 .682.513v3.36c0 .455-.17.512-.683.512h-.114v.627h5.637v-2.278h-.683zM36.33 16.798c0 1.31-1.025 1.765-2.506 1.765-.91 0-1.822-.513-1.993-.684l-.228.57h-.57v-2.278h.684c.17 1.082.911 1.538 1.937 1.595.91.057 1.537-.171 1.594-.798.114-.74-.683-.683-1.366-.797l-.969-.17c-1.423-.286-1.936-.684-1.936-1.652-.057-1.025.911-1.708 2.164-1.708.626 0 1.424.113 1.993.57l.285-.457h.512v1.994h-.626c-.114-1.082-1.253-1.424-2.164-1.424-.684.057-1.082.399-1.082.855 0 .455.398.512.911.626l1.196.17c1.253.228 2.164.457 2.164 1.823z" fill="#FF0"/></g></svg>