<?xml version="1.0" encoding="UTF-8" standalone="no"?>
<svg width="30px" height="30px" viewBox="0 0 30 30" version="1.1" xmlns="http://www.w3.org/2000/svg" xmlns:xlink="http://www.w3.org/1999/xlink" xmlns:sketch="http://www.bohemiancoding.com/sketch/ns">
    <!-- Generator: Sketch 3.4.4 (17249) - http://www.bohemiancoding.com/sketch -->
    <title>Artboard 1</title>
    <desc>Created with Sketch.</desc>
    <defs></defs>
    <g id="Page-1" stroke="none" stroke-width="1" fill="none" fill-rule="evenodd" sketch:type="MSPage">
        <g id="Artboard-1" sketch:type="MSArtboardGroup" fill="#FFFFFF">
            <path d="M21.2741006,30.0205522 C25.498873,28.1336562 28.3723019,24.4190846 28.3723019,20.145242 C28.3723019,20.1446031 28.3723019,20.1439642 28.3723017,20.1433253 L28.3799992,20.1433247 C28.3799987,11.187808 22.2481115,7.51765272 19.414868,6.70909104 C21.6542264,13.8348499 14.9965022,15.5225605 14.9865636,15.4879803 C19.8316318,3.48499446 8.4957256,0.0199999996 8.4957256,0.0199999996 C13.7426713,11.2457771 1.5,8.94844953 1.5,20.145242 C1.5,24.4190846 4.37342892,28.1336562 8.59820128,30.0205522 C8.35200508,29.4657925 8.21807548,28.8689972 8.21807548,28.2473654 C8.21807548,25.3014634 9.73063826,21.1353287 14.936151,17.9058835 C14.936151,22.3414499 17.6097971,25.2271776 17.6097971,25.2271776 C18.7934926,24.6207329 19.3865742,23.0434295 19.3865742,23.0434295 C19.3865742,23.0434295 21.634787,24.7957571 21.6542264,28.2473654 C21.6542264,28.8689972 21.5202968,29.4657925 21.2740981,30.0205533 Z" id="Oval-24" sketch:type="MSShapeGroup"></path>
        </g>
    </g>
</svg>
