<?xml version="1.0" encoding="UTF-8" standalone="no"?>
<svg width="30px" height="20px" viewBox="0 0 30 20" version="1.1" xmlns="http://www.w3.org/2000/svg" xmlns:xlink="http://www.w3.org/1999/xlink">
    <!-- Generator: Sketch 3.6.1 (26313) - http://www.bohemiancoding.com/sketch -->
    <title>logo-wordmark-home</title>
    <desc>Created with Sketch.</desc>
    <defs></defs>
    <g id="Page-1" stroke="none" stroke-width="1" fill="none" fill-rule="evenodd">
        <path d="M15.3181818,5 L19.5379062,5 C22.3034988,5 24.5454545,7.24419519 24.5454545,10 C24.5454545,12.7614237 22.3115127,15 19.5379062,15 L17,15 L17,20 L13,20 L13,5 L15.3181818,5 Z M0,10 C0,3.75 0.935914713,1.50070132 0.935914713,1.50070132 C1.17213886,0.671886866 2.07150546,0 2.92358798,0 L20.004494,0 C25.5248595,0 30,4.47593818 30,10 C30,15.5228475 25.5255682,20 20.004494,20 L2.92358798,20 C2.06205049,20 1.15652935,19.3373059 0.935914713,18.4992987 C0.935914713,18.4992987 5.74053187e-16,16.25 0,10 Z" id="logo-wordmark-home" fill="#28DB67"></path>
    </g>
</svg>